<svg width="11" height="15" viewBox="0 0 11 15" fill="inherit" xmlns="http://www.w3.org/2000/svg">
<path d="M5.62425 3.2506C6.12153 3.2506 6.59845 3.44815 6.95008 3.79978C7.30171 4.15141 7.49925 4.62832 7.49925 5.1256C7.49925 5.62288 7.30171 6.0998 6.95008 6.45143C6.59845 6.80306 6.12153 7.0006 5.62425 7.0006C5.12697 7.0006 4.65006 6.80306 4.29843 6.45143C3.94679 6.0998 3.74925 5.62288 3.74925 5.1256C3.74925 4.62832 3.94679 4.15141 4.29843 3.79978C4.65006 3.44815 5.12697 3.2506 5.62425 3.2506V3.2506ZM5.62425 4.0006C5.32588 4.0006 5.03973 4.11913 4.82876 4.33011C4.61778 4.54109 4.49925 4.82723 4.49925 5.1256C4.49925 5.42397 4.61778 5.71012 4.82876 5.9211C5.03973 6.13208 5.32588 6.2506 5.62425 6.2506C5.92262 6.2506 6.20877 6.13208 6.41975 5.9211C6.63072 5.71012 6.74925 5.42397 6.74925 5.1256C6.74925 4.82723 6.63072 4.54109 6.41975 4.33011C6.20877 4.11913 5.92262 4.0006 5.62425 4.0006V4.0006ZM2.09925 7.26835L5.62425 13.0659L9.14925 7.26835C9.52942 6.64285 9.7363 5.92746 9.74866 5.1956C9.76103 4.46374 9.57843 3.74177 9.21961 3.10378C8.86078 2.4658 8.33866 1.93479 7.70683 1.56524C7.075 1.19569 6.35622 1.00092 5.62425 1.00092C4.89228 1.00092 4.1735 1.19569 3.54167 1.56524C2.90984 1.93479 2.38772 2.4658 2.0289 3.10378C1.67007 3.74177 1.48748 4.46374 1.49984 5.1956C1.5122 5.92746 1.71908 6.64285 2.09925 7.26835V7.26835ZM9.78975 7.65835L5.62425 14.5096L1.45875 7.65835C1.00959 6.91911 0.765211 6.07368 0.750687 5.20881C0.736164 4.34393 0.95202 3.49077 1.37611 2.73686C1.80019 1.98296 2.41723 1.35547 3.16391 0.918788C3.91058 0.482104 4.76001 0.251953 5.625 0.251953C6.49 0.251953 7.33942 0.482104 8.08609 0.918788C8.83277 1.35547 9.44981 1.98296 9.8739 2.73686C10.298 3.49077 10.5138 4.34393 10.4993 5.20881C10.4848 6.07368 10.2404 6.91911 9.79125 7.65835H9.78975V7.65835Z" fill="inherit" />
</svg>
