<svg width="18" height="19" viewBox="0 0 18 19" fill="none" xmlns="http://www.w3.org/2000/svg">
<path d="M2.74363 3.74606C3.49925 2.92446 4.40929 2.25974 5.4218 1.78984C6.43432 1.31995 7.52947 1.05408 8.64473 1.00743C9.75999 0.960773 10.8735 1.13424 11.9217 1.51793C12.97 1.90162 13.9323 2.48801 14.7539 3.24363C15.5755 3.99925 16.2403 4.90929 16.7102 5.9218C17.1801 6.93432 17.4459 8.02947 17.4926 9.14473C17.5392 10.26 17.3658 11.3735 16.9821 12.4217C16.5984 13.47 16.012 14.4323 15.2564 15.2539C14.5008 16.0755 13.5907 16.7403 12.5782 17.2102C11.5657 17.6801 10.4705 17.9459 9.35527 17.9926C8.24001 18.0392 7.12648 17.8658 6.07826 17.4821C5.03004 17.0984 4.06766 16.512 3.24606 15.7564C2.42446 15.0008 1.75974 14.0907 1.28984 13.0782C0.819948 12.0657 0.554083 10.9705 0.507428 9.85527C0.460773 8.74001 0.634242 7.62648 1.01793 6.57826C1.40162 5.53004 1.98801 4.56766 2.74363 3.74606L2.74363 3.74606Z" stroke="#111111"/>
<path d="M13 5.5V13.5H11.751V8.54496L9.39392 13.5H8.60608L6.24259 8.54496V13.5H5V5.5H6.04404L8.9968 11.6581L11.9496 5.5H13Z" fill="#111111"/>
</svg>
