<svg width="16" height="15" viewBox="0 0 16 15" fill="inherit" xmlns="http://www.w3.org/2000/svg">
<path d="M1.49544 0.00390625H6.49544V5.00391H5.49544V1.49691C4.11011 2.07662 2.96816 3.118 2.26355 4.44417C1.55893 5.77035 1.3351 7.29954 1.63007 8.77202C1.92504 10.2445 2.72062 11.5695 3.88168 12.5219C5.04275 13.4744 6.49771 13.9955 7.99944 13.9969C9.59405 13.9985 11.1336 13.4138 12.3252 12.3541C13.5168 11.2945 14.2773 9.83377 14.462 8.24989C14.6468 6.66602 14.2428 5.0695 13.3271 3.76406C12.4113 2.45862 11.0476 1.53535 9.49544 1.16991V0.145906C11.2147 0.49574 12.7569 1.43726 13.8538 2.80665C14.9506 4.17604 15.5326 5.88663 15.4986 7.6408C15.4646 9.39497 14.8166 11.0817 13.6675 12.4075C12.5183 13.7333 10.9408 14.6143 9.20922 14.8972C7.47767 15.1801 5.70175 14.8469 4.19043 13.9557C2.67912 13.0646 1.52808 11.6717 0.937563 10.0196C0.347049 8.36744 0.354444 6.56056 0.95846 4.91331C1.56248 3.26605 2.72488 1.88269 4.24344 1.00391H1.49544V0.00390625Z" fill="inherit"/>
</svg>
