<svg width="36" height="36" viewBox="0 0 36 36" fill="none" xmlns="http://www.w3.org/2000/svg">
<path d="M18 6.00069C17.2964 4.76993 16.2761 3.74992 15.0452 3.04654C13.8143 2.34317 12.4176 1.98205 11 2.00069C9 2.00069 2 3.00069 2 11.0007C2 22.0007 9 29.0007 18 34.0007C27 29.0007 34 22.0007 34 11.0007C34 6.17969 31.458 3.90069 29 2.85069C27.733 2.31521 26.3753 2.0267 25 2.00069C23.5824 1.98205 22.1857 2.34317 20.9548 3.04654C19.7239 3.74992 18.7036 4.76993 18 6.00069V6.00069Z" stroke="#A39D94" stroke-miterlimit="10"/>
<path d="M18 8L24 5L29 3" stroke="#A39D94" stroke-miterlimit="10"/>
<path d="M18 6V8" stroke="#A39D94" stroke-miterlimit="10"/>
<path d="M29 3V8L25 21L20 28L18 34" stroke="#A39D94" stroke-miterlimit="10"/>
<path d="M29 8L34 12" stroke="#A39D94" stroke-miterlimit="10"/>
<path d="M30 17L34 12" stroke="#A39D94" stroke-miterlimit="10"/>
<path d="M24 2V5L19.5 3.99951" stroke="#A39D94" stroke-miterlimit="10"/>
<path d="M24 5L25 8L30 17L29 25" stroke="#A39D94" stroke-miterlimit="10"/>
<path d="M20 28L24 30" stroke="#A39D94" stroke-miterlimit="10"/>
<path d="M29 25L20 28" stroke="#A39D94" stroke-miterlimit="10"/>
<path d="M33 18L30 17L25 21L18 25L20 28" stroke="#A39D94" stroke-miterlimit="10"/>
<path d="M18 8L12 5L7 3" stroke="#A39D94" stroke-miterlimit="10"/>
<path d="M18 6V8" stroke="#A39D94" stroke-miterlimit="10"/>
<path d="M7 3V8L11 21L16 28L18 34" stroke="#A39D94" stroke-miterlimit="10"/>
<path d="M4 5L7 8H18H29L32 5" stroke="#A39D94" stroke-miterlimit="10"/>
<path d="M7 8L2 12" stroke="#A39D94" stroke-miterlimit="10"/>
<path d="M6 17L2 12" stroke="#A39D94" stroke-miterlimit="10"/>
<path d="M12 2V5L16.5 3.99951" stroke="#A39D94" stroke-miterlimit="10"/>
<path d="M12 5L11 8L6 17L7 25" stroke="#A39D94" stroke-miterlimit="10"/>
<path d="M16 28L12 30" stroke="#A39D94" stroke-miterlimit="10"/>
<path d="M7 25L16 28" stroke="#A39D94" stroke-miterlimit="10"/>
<path d="M3 18L6 17L11 21L18 25L16 28" stroke="#A39D94" stroke-miterlimit="10"/>
</svg>
