<svg width="28" height="28" viewBox="0 0 28 28" fill="none" xmlns="http://www.w3.org/2000/svg">
<path d="M7.74363 8.24606C8.49925 7.42446 9.40929 6.75974 10.4218 6.28984C11.4343 5.81995 12.5295 5.55408 13.6447 5.50743C14.76 5.46077 15.8735 5.63424 16.9217 6.01793C17.97 6.40162 18.9323 6.98801 19.7539 7.74363C20.5755 8.49925 21.2403 9.40929 21.7102 10.4218C22.1801 11.4343 22.4459 12.5295 22.4926 13.6447C22.5392 14.76 22.3658 15.8735 21.9821 16.9217C21.5984 17.97 21.012 18.9323 20.2564 19.7539C19.5008 20.5755 18.5907 21.2403 17.5782 21.7102C16.5657 22.1801 15.4705 22.4459 14.3553 22.4926C13.24 22.5392 12.1265 22.3658 11.0783 21.9821C10.03 21.5984 9.06766 21.012 8.24606 20.2564C7.42446 19.5008 6.75974 18.5907 6.28984 17.5782C5.81995 16.5657 5.55408 15.4705 5.50743 14.3553C5.46077 13.24 5.63424 12.1265 6.01793 11.0783C6.40162 10.03 6.98801 9.06766 7.74363 8.24606L7.74363 8.24606Z" stroke="#449AB5"/>
<path d="M13 10.5H14.5V9H13V10.5Z" fill="#449AB5"/>
<path d="M13 19.5H14.5V11.5H13V19.5Z" fill="#449AB5"/>
</svg>
