<svg width="89" height="78" viewBox="0 0 89 78" fill="none" xmlns="http://www.w3.org/2000/svg">
<path d="M82.8639 30H35.3626C32.7396 30 30.6133 32.1247 30.6133 34.7456V62.2544C30.6133 64.8753 32.7396 67 35.3626 67H82.8639C85.4869 67 87.6133 64.8753 87.6133 62.2544V34.7456C87.6133 32.1247 85.4869 30 82.8639 30Z" fill="#FAFAFA" stroke="black" stroke-miterlimit="10"/>
<path d="M87.6133 37H30.6133V41H87.6133V37Z" fill="black"/>
<path d="M39.6133 27H37.6133V44H39.6133V27Z" fill="#FAFAFA"/>
<path d="M39.6133 56V54H21.6133V56H39.6133Z" fill="#FAFAFA"/>
<path d="M38.5999 12.127H0.613281V41.0464H38.5999V12.127Z" fill="#FAFAFA" stroke="black" stroke-miterlimit="10"/>
<path d="M38.6133 41H0.613281V55H38.6133V41Z" fill="#FAFAFA" stroke="black" stroke-miterlimit="10"/>
<path d="M11.6131 41C11.0669 39.7038 10.9714 38.1514 11.1017 36.7508C11.2319 35.3503 11.706 34.0036 12.4818 32.8303C13.2577 31.657 14.3113 30.6935 15.549 30.0253C16.7868 29.3571 18.1704 29.005 19.5769 29.0001C20.9835 28.9952 22.3696 29.3377 23.6119 29.9972C24.8543 30.6568 25.9146 31.613 26.6986 32.7808C27.4825 33.9486 27.966 35.292 28.106 36.6916C28.246 38.0912 28.1503 39.7 27.6131 41" stroke="black" stroke-miterlimit="10"/>
<path d="M14.8965 28.5278L17.2731 26.4336H21.6028L23.9716 28.5357L19.4301 33.0301L14.8965 28.5278Z" fill="black"/>
<path d="M21.4541 26.8254L23.3914 28.551L19.4304 32.4728L15.5086 28.551L17.4538 26.8254H21.4541ZM21.7443 26.041H17.1244L16.9048 26.2371L14.9517 27.9941L14.3242 28.5431L14.9203 29.1392L18.8421 33.0611L19.3912 33.6101L19.9481 33.0689L23.917 29.1471L24.5131 28.551L23.8856 28.0019L21.9404 26.2763L21.7129 26.0802L21.7443 26.041Z" fill="#FAFAFA"/>
<path d="M78.4456 22.9744C76.2321 18.2747 73.0793 14.0783 69.1817 10.6439C65.284 7.20957 60.7242 4.61006 55.7833 3.00572C50.8424 1.40138 45.6252 0.826217 40.4534 1.3157C35.2817 1.80519 30.2651 3.34895 25.7129 5.85178" stroke="#A39D94" stroke-miterlimit="10"/>
<mask id="path-11-inside-1_839_17205" fill="white">
<path d="M80.1478 19.2333L79.3949 19.0059L78.2889 22.7159L74.673 21.3354L74.3906 22.0649L78.7987 23.7434L80.1478 19.2333Z"/>
</mask>
<path d="M80.1478 19.2333L79.3949 19.0059L78.2889 22.7159L74.673 21.3354L74.3906 22.0649L78.7987 23.7434L80.1478 19.2333Z" fill="black"/>
<path d="M80.1478 19.2333L81.1059 19.5199L81.3917 18.5644L80.437 18.2761L80.1478 19.2333ZM79.3949 19.0059L79.684 18.0486L78.7233 17.7583L78.4365 18.7202L79.3949 19.0059ZM78.2889 22.7159L77.9322 23.6501L78.9393 24.0346L79.2472 23.0016L78.2889 22.7159ZM74.673 21.3354L75.0297 20.4012L74.0998 20.0462L73.7404 20.9744L74.673 21.3354ZM74.3906 22.0649L73.4581 21.7039L73.0951 22.6416L74.0348 22.9994L74.3906 22.0649ZM78.7987 23.7434L78.4429 24.6779L79.4484 25.0608L79.7568 24.03L78.7987 23.7434ZM80.437 18.2761L79.684 18.0486L79.1057 19.9631L79.8587 20.1906L80.437 18.2761ZM78.4365 18.7202L77.3306 22.4302L79.2472 23.0016L80.3532 19.2915L78.4365 18.7202ZM78.6456 21.7817L75.0297 20.4012L74.3163 22.2696L77.9322 23.6501L78.6456 21.7817ZM73.7404 20.9744L73.4581 21.7039L75.3232 22.4259L75.6056 21.6964L73.7404 20.9744ZM74.0348 22.9994L78.4429 24.6779L79.1546 22.8089L74.7465 21.1303L74.0348 22.9994ZM79.7568 24.03L81.1059 19.5199L79.1898 18.9467L77.8407 23.4568L79.7568 24.03Z" fill="#A39D94" mask="url(#path-11-inside-1_839_17205)"/>
<path d="M13.8535 62.2324C19.1918 69.2044 26.7772 74.1153 35.3234 76.1325C43.8695 78.1496 52.8503 77.1488 60.7427 73.2998" stroke="#A39D94" stroke-miterlimit="10"/>
<mask id="path-14-inside-2_839_17205" fill="white">
<path d="M12.9824 66.2472L13.7668 66.3099L14.057 62.4508L17.8847 63.0234L18.0023 62.2469L13.3432 61.5488L12.9824 66.2472Z"/>
</mask>
<path d="M12.9824 66.2472L13.7668 66.3099L14.057 62.4508L17.8847 63.0234L18.0023 62.2469L13.3432 61.5488L12.9824 66.2472Z" fill="black"/>
<path d="M12.9824 66.2472L11.9854 66.1706L11.909 67.1645L12.9027 67.244L12.9824 66.2472ZM13.7668 66.3099L13.687 67.3067L14.6886 67.3869L14.764 66.3849L13.7668 66.3099ZM14.057 62.4508L14.2049 61.4619L13.1405 61.3026L13.0598 62.3759L14.057 62.4508ZM17.8847 63.0234L17.7367 64.0124L18.7239 64.1601L18.8734 63.1732L17.8847 63.0234ZM18.0023 62.2469L18.9911 62.3967L19.1411 61.4064L18.1505 61.2579L18.0023 62.2469ZM13.3432 61.5488L13.4914 60.5599L12.4285 60.4006L12.3462 61.4723L13.3432 61.5488ZM12.9027 67.244L13.687 67.3067L13.8465 65.3131L13.0622 65.2503L12.9027 67.244ZM14.764 66.3849L15.0542 62.5258L13.0598 62.3759L12.7696 66.2349L14.764 66.3849ZM13.9091 63.4398L17.7367 64.0124L18.0326 62.0344L14.2049 61.4619L13.9091 63.4398ZM18.8734 63.1732L18.9911 62.3967L17.0136 62.0971L16.896 62.8736L18.8734 63.1732ZM18.1505 61.2579L13.4914 60.5599L13.1951 62.5378L17.8542 63.2359L18.1505 61.2579ZM12.3462 61.4723L11.9854 66.1706L13.9795 66.3237L14.3403 61.6254L12.3462 61.4723Z" fill="#A39D94" mask="url(#path-14-inside-2_839_17205)"/>
</svg>
