<?xml version="1.0" encoding="utf-8"?><svg width="24" height="24" fill="none" xmlns="http://www.w3.org/2000/svg" viewBox="0 0 24 24"><g clip-path="url(#aclip0_269_3122)" fill="#111"><path fill-rule="evenodd" clip-rule="evenodd" d="M8.518 13.223a8.23 8.23 0 00-4.554 2.313A3.292 3.292 0 003 17.863V21h18v-3.307a2.88 2.88 0 00-.844-2.037 8.642 8.642 0 00-4.687-2.413 3.593 3.593 0 01-.851.903 7.642 7.642 0 014.831 2.217c.353.353.551.831.551 1.33V20H4v-2.137c0-.607.242-1.19.671-1.62a7.23 7.23 0 014.699-2.106 3.591 3.591 0 01-.852-.914z"/><path d="M10.276 13.653l-.155.475h0-.002l-.003-.001-.01-.003-.03-.01a4.679 4.679 0 01-.72-.331c.195.117.402.222.619.313.63.264 1.32.403 2.023.404.703 0 1.395-.136 2.025-.4.243-.102.475-.221.692-.356a3.933 3.933 0 01-.35.188 4.81 4.81 0 01-.441.185l-.024.008a4.97 4.97 0 01-1.902.373c-.364 0-.847-.1-1.202-.187a13.578 13.578 0 01-.612-.163l-.039-.012-.01-.003-.004-.001h0l.145-.479zm0 0l-.155.476.009.002.146-.478zm4.714-.095l-.126.089c.04-.029.082-.059.122-.09l.004.001zm-5.886.061c-.03-.02-.06-.041-.089-.063h.004c.028.021.056.043.085.063z" stroke="#111"/><path fill-rule="evenodd" clip-rule="evenodd" d="M12 11c1.972 0 4-2.028 4-4s-2.028-4-4-4-4 2.028-4 4 2.028 4 4 4zm0 1a5 5 0 100-10 5 5 0 000 10z"/></g><defs><clipPath id="aclip0_269_3122"><path fill="#fff" d="M0 0h24v24H0z"/></clipPath></defs></svg>