<?xml version="1.0" encoding="utf-8"?><svg width="89" height="78" fill="none" xmlns="http://www.w3.org/2000/svg" viewBox="0 0 89 78"><path d="M82.864 30H35.363a4.747 4.747 0 00-4.75 4.746v27.508A4.747 4.747 0 0035.363 67h47.5a4.748 4.748 0 004.75-4.746V34.746A4.748 4.748 0 0082.863 30z" fill="#FAFAFA" stroke="#000" stroke-miterlimit="10"/><path d="M87.613 37h-57v4h57v-4z" fill="#000"/><path d="M39.613 27h-2v17h2V27zM39.613 56v-2h-18v2h18z" fill="#FAFAFA"/><path d="M38.6 12.127H.613v28.92H38.6v-28.92z" fill="#FAFAFA" stroke="#000" stroke-miterlimit="10"/><path d="M38.613 41h-38v14h38V41z" fill="#FAFAFA" stroke="#000" stroke-miterlimit="10"/><path d="M11.613 41c-.546-1.296-.642-2.849-.511-4.25a8.542 8.542 0 0117.004-.058c.14 1.4.044 3.008-.493 4.308" stroke="#000" stroke-miterlimit="10"/><path d="M14.896 28.528l2.377-2.094h4.33l2.369 2.102-4.542 4.494-4.534-4.502z" fill="#000"/><path d="M21.454 26.825l1.937 1.726-3.96 3.922-3.922-3.922 1.945-1.726h4zm.29-.784h-4.62l-.22.196-1.952 1.757-.628.55.596.595 3.922 3.922.55.55.556-.542 3.969-3.922.596-.596-.627-.55-1.946-1.725-.227-.196.031-.039z" fill="#FAFAFA"/><path d="M78.446 22.974A38.035 38.035 0 0025.713 5.852" stroke="#A39D94" stroke-miterlimit="10"/><mask id="bga" fill="#fff"><path d="M80.148 19.233l-.753-.227-1.106 3.71-3.616-1.38-.282.729 4.408 1.678 1.349-4.51z"/></mask><path d="M80.148 19.233l-.753-.227-1.106 3.71-3.616-1.38-.282.729 4.408 1.678 1.349-4.51z" fill="#000"/><path d="M80.148 19.233l.958.287.286-.956-.955-.288-.29.957zm-.753-.227l.289-.957-.96-.29-.288.961.959.286zm-1.106 3.71l-.357.934 1.007.385.308-1.033-.958-.286zm-3.616-1.38l.357-.935-.93-.355-.36.928.933.361zm-.282.729l-.933-.361-.363.938.94.357.356-.934zm4.408 1.678l-.356.935 1.005.383.309-1.031-.958-.287zm1.638-5.467l-.753-.227-.578 1.914.753.228.578-1.915zm-2 .444l-1.106 3.71 1.916.572 1.106-3.71-1.916-.572zm.209 3.062l-3.616-1.38-.714 1.868 3.616 1.38.714-1.868zm-4.906-.808l-.282.73 1.865.722.283-.73-1.866-.722zM74.035 23l4.408 1.679.712-1.87-4.409-1.678-.711 1.87zm5.722 1.031l1.349-4.51-1.916-.573-1.35 4.51 1.917.573z" fill="#A39D94" mask="url(#bga)"/><path d="M13.854 62.232A38.05 38.05 0 0060.743 73.3" stroke="#A39D94" stroke-miterlimit="10"/><mask id="bgb" fill="#fff"><path d="M12.982 66.247l.785.063.29-3.86 3.828.573.117-.776-4.659-.698-.36 4.698z"/></mask><path d="M12.982 66.247l.785.063.29-3.86 3.828.573.117-.776-4.659-.698-.36 4.698z" fill="#000"/><path d="M12.982 66.247l-.997-.076-.076.993.994.08.08-.997zm.785.063l-.08.997 1.002.08.075-1.002-.997-.075zm.29-3.86l.148-.988-1.065-.16-.08 1.074.997.075zm3.828.573l-.148.99.987.147.15-.987-.99-.15zm.117-.776l.99.15.15-.99-.991-.15-.149.99zm-4.659-.698l.148-.99-1.063-.158-.082 1.071.997.077zm-.44 5.695l.784.063.16-1.994-.785-.063-.16 1.994zm1.861-.86l.29-3.858-1.994-.15-.29 3.859 1.994.15zm-.855-2.944l3.828.572.296-1.978-3.828-.572-.296 1.978zm4.964-.267l.118-.776-1.977-.3-.118.777 1.977.3zm-.723-1.915l-4.659-.698-.296 1.978 4.66.698.296-1.978zm-5.804.214l-.36 4.699 1.993.153.361-4.699-1.994-.153z" fill="#A39D94" mask="url(#bgb)"/></svg>