<?xml version="1.0" encoding="utf-8"?><svg viewBox="0 0 49 48" xmlns="http://www.w3.org/2000/svg" xmlns:xlink="http://www.w3.org/1999/xlink"><style>:root>svg{display:none}:root>svg:target{display:block}</style><svg fill="inherit" viewBox="0 0 11 20" id="arrow" xmlns="http://www.w3.org/2000/svg"><path d="M9.778 0L0 10l9.778 10L11 18.75 2.444 10 11 1.25 9.778 0z"/></svg><svg fill="none" viewBox="0 0 48 48" id="consultation" xmlns="http://www.w3.org/2000/svg"><circle cx="24" cy="24" r="23.5" stroke="#fff"/><mask id="ba" style="mask-type:alpha" maskUnits="userSpaceOnUse" x="0" y="0" width="48" height="48"><circle cx="24" cy="24" r="24" fill="#000"/></mask><g mask="url(#ba)"><path d="M30 24l-6 3-6-3-8 4-2.5 26h33L38 28l-8-4z" fill="#fff"/><path stroke="#56323F" d="M29.5 31.5h6v4h-6z"/><path fill-rule="evenodd" clip-rule="evenodd" d="M24 23a8 8 0 100-16 8 8 0 000 16z" fill="#fff"/><path stroke="#56323F" stroke-width="2" d="M29 31h7"/><path d="M23.667 28L22 39l2 2 2-2-1.667-11h-.666z" fill="#56323F" stroke="#56323F"/><path d="M24 30l2-4-2 .8-2-.8 2 4z" fill="#56323F" stroke="#56323F"/></g></svg><svg fill="none" viewBox="0 0 49 48" id="instruction" xmlns="http://www.w3.org/2000/svg"><mask id="ca" style="mask-type:alpha" maskUnits="userSpaceOnUse" x="0" y="0" width="48" height="48"><circle cx="24" cy="24" r="24" fill="#000"/></mask><g mask="url(#ca)"><path d="M7 9l13.75 6.417V42L7 35.583V9z" fill="#fff"/><path d="M34 35.265V9.785l-12.75 5.95v25.48L34 35.265z" stroke="#fff"/><path d="M34.5 9l13.75 6.417V42L34.5 35.583V9z" fill="#fff"/></g><circle cx="24" cy="24" r="23.5" stroke="#fff"/></svg><svg fill="inherit" viewBox="0 0 18 18" id="location" xmlns="http://www.w3.org/2000/svg"><path d="M8.625 5.25a1.875 1.875 0 110 3.75 1.875 1.875 0 010-3.75zm0 .75a1.125 1.125 0 100 2.25 1.125 1.125 0 000-2.25zM5.1 9.268l3.525 5.797 3.525-5.797a4.124 4.124 0 10-7.05 0zm7.69.39l-4.165 6.851L4.46 9.658a4.875 4.875 0 118.332 0h-.001z"/></svg><svg fill="none" viewBox="0 0 48 48" id="promocode" xmlns="http://www.w3.org/2000/svg"><mask id="ea" style="mask-type:alpha" maskUnits="userSpaceOnUse" x="0" y="0" width="48" height="48"><circle cx="24" cy="24" r="24" fill="#000"/></mask><g mask="url(#ea)" stroke="#fff"><rect x="9.5" y="10.5" width="29" height="55" rx="1.5" fill="#56323F"/><path fill="#fff" d="M12.5 14.5h23v46h-23z"/><path stroke-linecap="round" d="M21.5 12.5h5"/></g><circle cx="24" cy="24" r="23.5" stroke="#fff"/><path d="M22 35.5h-6.5v-13h17v13h-6.707l-.147.146L24 37.293l-1.646-1.647-.147-.146H22z" fill="#fff" stroke="#56323F"/><path d="M18.968 29.713l-.54-.897-.536.897-.317-.224.629-.809-.945-.268.136-.316.9.316-.047-1.08h.36l-.044 1.08.9-.316.137.316-.945.268.629.809-.317.224zm2.786 0l-.54-.897-.536.897-.317-.224.629-.809-.945-.268.136-.316.901.316-.048-1.08h.36l-.044 1.08.901-.316.136.316-.945.268.629.809-.317.224zm2.787 0L24 28.816l-.536.897-.316-.224.628-.809-.945-.268.136-.316.901.316-.048-1.08h.36l-.044 1.08.901-.316.136.316-.944.268.628.809-.316.224zm2.786 0l-.54-.897-.537.897-.316-.224.628-.809-.945-.268.136-.316.901.316-.048-1.08h.36l-.044 1.08.901-.316.136.316-.944.268.628.809-.316.224zm2.786 0l-.54-.897-.537.897-.316-.224.628-.809-.945-.268.137-.316.9.316-.048-1.08h.36l-.043 1.08.9-.316.137.316-.945.268.628.809-.316.224z" fill="#56323F"/></svg><svg fill="inherit" viewBox="0 0 24 24" id="search-icon" xmlns="http://www.w3.org/2000/svg"><path d="M9.5 4a6.5 6.5 0 014.932 10.734l5.644 5.644-.707.707-5.645-5.645A6.5 6.5 0 119.5 4zm0 1a5.5 5.5 0 100 11 5.5 5.5 0 000-11z" fill="#111"/><circle cx="9.5" cy="10.5" r="5.5"/></svg><svg fill="none" viewBox="0 0 24 24" id="tel" xmlns="http://www.w3.org/2000/svg"><path d="M19.5 22c.827 0 1.5-.673 1.5-1.5V17c0-.827-.673-1.5-1.5-1.5-1.17 0-2.32-.184-3.42-.547a1.524 1.524 0 00-1.523.363l-1.44 1.44a14.655 14.655 0 01-5.885-5.883L8.66 9.436c.412-.382.56-.963.384-1.522A10.872 10.872 0 018.5 4.5C8.5 3.673 7.827 3 7 3H3.5C2.673 3 2 3.673 2 4.5 2 14.15 9.85 22 19.5 22zM3.5 4H7a.5.5 0 01.5.5c0 1.277.2 2.531.593 3.72a.473.473 0 01-.127.497L6.01 10.683c1.637 3.228 4.055 5.646 7.298 7.297l1.949-1.95a.516.516 0 01.516-.126c1.196.396 2.45.596 3.727.596.275 0 .5.225.5.5v3.5c0 .275-.225.5-.5.5C10.402 21 3 13.598 3 4.5a.5.5 0 01.5-.5z" fill="#111"/></svg></svg>