<?xml version="1.0" encoding="utf-8"?><svg viewBox="0 0 580 83" xmlns="http://www.w3.org/2000/svg" xmlns:xlink="http://www.w3.org/1999/xlink"><style>:root>svg{display:none}:root>svg:target{display:block}</style><svg fill="inherit" viewBox="0 0 11 20" id="arrow" xmlns="http://www.w3.org/2000/svg"><path d="M9.778 0L0 10l9.778 10L11 18.75 2.444 10 11 1.25 9.778 0z"/></svg><svg fill="none" viewBox="0 0 11 20" id="arrow-left" xmlns="http://www.w3.org/2000/svg"><path d="M9.778 20L0 10 9.778 0 11 1.25 2.444 10 11 18.75 9.778 20z" fill="#000" fill-opacity=".5"/></svg><svg fill="none" viewBox="0 0 11 20" id="arrow-right" xmlns="http://www.w3.org/2000/svg"><path d="M1.222 0L11 10 1.222 20 0 18.75 8.556 10 0 1.25 1.222 0z" fill="#000" fill-opacity=".5"/></svg><svg fill="none" viewBox="0 0 14 14" id="checked" xmlns="http://www.w3.org/2000/svg"><path fill="#111" d="M3 6.732l.79-.79 3.274 3.273-.79.791z"/><path fill="#111" d="M11.216 3.482l.79.79-5.732 5.734-.79-.79z"/></svg><svg fill="inherit" viewBox="0 0 25 24" id="close-filters" xmlns="http://www.w3.org/2000/svg"><path d="M5.5 4l15 15-1 1-15-15 1-1z"/><path d="M20.5 5l-15 15-1-1 15-15 1 1z"/></svg><svg fill="none" viewBox="0 0 48 48" id="consultation" xmlns="http://www.w3.org/2000/svg"><circle cx="24" cy="24" r="23.5" stroke="#fff"/><mask id="afa" style="mask-type:alpha" maskUnits="userSpaceOnUse" x="0" y="0" width="48" height="48"><circle cx="24" cy="24" r="24" fill="#000"/></mask><g mask="url(#afa)"><path d="M30 24l-6 3-6-3-8 4-2.5 26h33L38 28l-8-4z" fill="#fff"/><path stroke="#56323F" d="M29.5 31.5h6v4h-6z"/><path fill-rule="evenodd" clip-rule="evenodd" d="M24 23a8 8 0 100-16 8 8 0 000 16z" fill="#fff"/><path stroke="#56323F" stroke-width="2" d="M29 31h7"/><path d="M23.667 28L22 39l2 2 2-2-1.667-11h-.666z" fill="#56323F" stroke="#56323F"/><path d="M24 30l2-4-2 .8-2-.8 2 4z" fill="#56323F" stroke="#56323F"/></g></svg><svg fill="inherit" viewBox="0 0 26 26" id="cross2" xmlns="http://www.w3.org/2000/svg"><path d="M5.575 5.368l15.557 15.556-.707.707L4.868 6.075z"/><path d="M5.575 5.368l15.557 15.556-.707.707L4.868 6.075z"/><path d="M4.868 20.925L20.425 5.369l.707.707L5.575 21.632z"/><path d="M4.868 20.925L20.425 5.369l.707.707L5.575 21.632z"/></svg><svg fill="inherit" viewBox="0 0 56 56" id="facebook" xmlns="http://www.w3.org/2000/svg"><path d="M56 26.828v2.312c-.152 1.2-.256 2.407-.464 3.591-1.24 7.095-4.728 12.862-10.368 17.318-3.88 3.063-8.304 4.935-13.216 5.615-.928.128-1.864.224-2.8.336H26.84c-1.088-.128-2.184-.2-3.264-.384C16.408 54.392 10.528 50.953 6 45.249 2.92 41.354 1.032 36.922.336 31.995.208 31.083.112 30.171 0 29.26v-2.543c.04-.208.08-.408.112-.616.264-1.672.392-3.376.8-5C4.48 7.047 18.112-1.943 32.392.36c7.248 1.167 13.16 4.71 17.696 10.486 3.032 3.863 4.888 8.247 5.568 13.118.136.952.232 1.912.344 2.864zm-20.048-9.43v-5.624c-.216 0-.408.016-.6 0-2.008-.176-4.016-.288-6.008.128-2.632.56-4.528 2.016-5.048 4.775-.232 1.248-.184 2.552-.24 3.824-.032.784-.008 1.567-.008 2.407h-3.904v5.544h3.928v18.125h6.584V28.436h4.24c.32-1.856.64-3.672.968-5.56h-5.216c0-.976-.088-1.911.024-2.815.152-1.328.608-2.4 2.552-2.496.912-.04 1.808-.112 2.728-.168z"/></svg><svg fill="inherit" viewBox="0 0 24 24" id="favorite" xmlns="http://www.w3.org/2000/svg"><path d="M19.462 12.962A5.25 5.25 0 1011.5 6.167a5.25 5.25 0 10-7.962 6.795l7.962 7.961 7.962-7.96v0z" stroke="inherit"/></svg><svg fill="inherit" viewBox="0 0 56 56" id="instagram" xmlns="http://www.w3.org/2000/svg"><path d="M56 26.054v3.88c-.04.104-.112.2-.12.304-.08 1.976-.504 3.897-1.064 5.785-.904 3.032-2.304 5.824-4.143 8.4a27.542 27.542 0 01-5.832 5.937 27.375 27.375 0 01-5.51 3.24c-2.505 1.096-5.096 1.84-7.816 2.16-.608.072-1.216.16-1.832.24h-3.391c-.752-.08-1.512-.128-2.256-.256-2.216-.368-4.383-.904-6.471-1.744a28.304 28.304 0 01-7.047-4.12 27.18 27.18 0 01-4.832-4.945 28.148 28.148 0 01-3.975-7.264c-1-2.712-1.584-5.505-1.696-8.377-.064-1.6.088-3.208.224-4.808.2-2.392.864-4.672 1.752-6.889 1.016-2.552 2.4-4.896 4.12-7.056a27.077 27.077 0 014.847-4.768 27.754 27.754 0 015.703-3.36C19.925.972 23.341.195 26.884.027c2.711-.128 5.399.184 8.03.848A27.64 27.64 0 0146.49 6.973a27.254 27.254 0 015.336 6.336c2.111 3.464 3.455 7.185 3.935 11.217.064.496.16 1.008.24 1.528zm-14.062 1.912c0-2.784.016-5.576-.008-8.36-.008-1.473-.568-2.745-1.576-3.833-1.296-1.392-2.928-1.96-4.783-1.968-4.688-.008-9.375-.008-14.055 0-.76 0-1.527.048-2.287.12-2.8.264-5.176 2.88-5.176 5.672 0 5.529.008 11.065-.008 16.594 0 .904.208 1.744.64 2.512 1.168 2.096 2.984 3.184 5.376 3.2 5.207.024 10.422.008 15.63 0 .415 0 .831-.064 1.247-.112 2.688-.304 5.072-2.88 5-5.792-.048-2.657 0-5.345 0-8.033z"/><path d="M16.485 27.934c0-2.744.032-5.488-.008-8.233-.032-1.808 1.544-3.432 3.352-3.448 5.447-.04 10.902-.04 16.358 0 1.807.016 3.351 1.608 3.343 3.392a1912.03 1912.03 0 00.008 16.594c.008 1.608-1.464 3.24-3.2 3.248-5.55.04-11.102.04-16.653 0-1.728-.008-3.216-1.64-3.192-3.257.016-2.768-.008-5.528-.008-8.296zm4.24-.008c-.009 3.912 3.255 7.072 6.847 7.24 4.615.224 7.599-3.536 7.695-6.936.128-4.56-3.4-7.625-7.303-7.593-4 .024-7.223 3.137-7.24 7.289zm16.741-7.64c.016-.92-.727-1.729-1.607-1.753-.824-.024-1.792.912-1.776 1.704.024.937.752 1.673 1.672 1.689 1.023.024 1.695-.624 1.711-1.64z"/><path d="M23.148 27.95c-.192-2.64 2.24-4.928 4.823-4.936 2.68-.008 4.952 2.344 4.904 4.896-.056 2.856-2.272 4.912-4.887 4.904-2.624 0-4.896-2.048-4.84-4.864z"/></svg><svg fill="none" viewBox="0 0 48 48" id="instruction" xmlns="http://www.w3.org/2000/svg"><mask id="aka" style="mask-type:alpha" maskUnits="userSpaceOnUse" x="0" y="0" width="48" height="48"><circle cx="24" cy="24" r="24" fill="#000"/></mask><g mask="url(#aka)"><path d="M7 9l13.75 6.417V42L7 35.583V9z" fill="#fff"/><path d="M34 35.265V9.785l-12.75 5.95v25.48L34 35.265z" stroke="#fff"/><path d="M34.5 9l13.75 6.417V42L34.5 35.583V9z" fill="#fff"/></g><circle cx="24" cy="24" r="23.5" stroke="#fff"/></svg><svg fill="inherit" viewBox="0 0 18 18" id="location" xmlns="http://www.w3.org/2000/svg"><path d="M8.625 5.25a1.875 1.875 0 110 3.75 1.875 1.875 0 010-3.75zm0 .75a1.125 1.125 0 100 2.25 1.125 1.125 0 000-2.25zM5.1 9.268l3.525 5.797 3.525-5.797a4.124 4.124 0 10-7.05 0zm7.69.39l-4.165 6.851L4.46 9.658a4.875 4.875 0 118.332 0h-.001z"/></svg><svg fill="none" viewBox="0 0 580 83" id="logo2" xmlns="http://www.w3.org/2000/svg"><path d="M71.052 25.877l.04-10.475-23.935 23.64 23.895-13.165zm-.723-.431L51.398 35.87l18.961-18.713-.03 8.288zM70.891 67.618l.04-10.475-23.774-13.325 23.734 23.8zm-.723-1.756L51.378 47.02l18.83 10.555-.04 8.288zM71.947 27.402v27.814l.1-.01 6.471-8.428L83 41.359 71.967 27.412l-.02-.01zm.733 2.067l9.396 11.87-4.12 4.987L72.69 53.1v-23.63h-.01zM83 54.303V43.065L72.87 55.86 83 54.303zm-.724-.622L74.6 54.865l7.677-9.703v8.52zM72.027 56.972v10.255l.141-.07 10.53-11.87-10.56 1.555-.11.13zm.734.522L80.83 56.3l-8.07 9.1v-7.906zM72.871 26.86L83 39.655V28.416L72.87 26.861zm9.405 10.707L74.6 27.864l7.677 1.184v8.519zM82.699 27.453l-10.531-11.87-.14-.07v10.254l.1.12 10.57 1.566zM72.76 17.337l8.069 9.101-8.07-1.194v-7.907zM11.907 57.143l-.04 10.475 24.036-23.68-23.996 13.205zm.734.431L31.642 47.11 12.611 65.873l.03-8.299zM12.078 15.402l-.04 10.475 23.865 13.385-23.825-23.86zm.714 1.756l18.87 18.893-18.9-10.595.03-8.298zM0 41.6l11.073 13.867V27.653h-.03L0 41.6zm10.34 11.79L.934 41.6l9.416-11.88v23.67h-.01zM0 43.316v11.238l10.149 1.555L0 43.316zm.734 2.097l7.697 9.703-7.697-1.184v-8.519zM.332 55.538l10.52 11.87.14.07V57.223l-.1-.12-10.56-1.565zm9.927 10.114L2.19 56.55l8.07 1.194v7.907zM0 28.677v11.238l10.149-12.793L0 28.677zm.734.622l7.697-1.184-7.697 9.703v-8.52zM10.993 26.018V15.763l-.14.07L.331 27.703l10.56-1.555.1-.13zm-.734-.512L2.201 26.69l8.068-9.1v7.916h-.01zM43.861 35.941l23.895-23.8-10.48-.04-13.415 23.84zm22.147-23.077L47.077 31.717l10.62-18.883 8.31.03zM25.774 12.101l-10.49.04 23.905 23.8-13.415-23.84zm-.422.732l10.621 18.884-18.93-18.853 8.31-.03zM55.498 11.057v-.03L41.53.03 27.653 11.057h27.845zM41.54.963l11.898 9.372H29.733L41.54.963zM39.812.03L28.568 0 27.01 10.134 39.812.03zM29.19.732l8.53.02-9.716 7.656L29.191.732zM26.015 10.867L27.573.32 15.686 10.837l-.07.14h10.269l.13-.11zm-8.56-.622l9.113-8.057-1.196 8.057h-7.918zM54.483 0L43.228.03 56.04 10.134 54.483 0zm-.623.732l1.185 7.686L45.32.753l8.54-.02zM57.135 10.977h10.27l-.07-.14L55.456.32l1.558 10.546.12.11zm8.44-.732h-7.917l-1.196-8.057 9.114 8.057zM57.276 71.05l10.49.04-23.804-24.142L57.276 71.05zm.422-.723l-10.54-19.104 18.86 19.134-8.32-.03zM39.36 47.089l-23.885 23.8 10.49.04L39.36 47.09zM17.223 70.167l18.921-18.844-10.61 18.874-8.311-.03zM27.774 71.933v.03L41.74 83l13.887-11.067H27.774zM41.74 82.067l-11.897-9.412h23.704l-11.807 9.412zM43.46 82.99l11.254-.01 1.557-10.124L43.46 82.99zm10.63-.732l-8.53.01 9.716-7.686-1.185 7.676zM57.266 72.114l-1.557 10.545 11.887-10.505.07-.14h-10.28l-.12.1zm8.561.622l-9.114 8.057 1.196-8.057h7.918zM28.799 82.98l11.254.01-12.812-10.134L28.8 82.98zm.623-.722l-1.186-7.686 9.717 7.686h-8.531zM26.146 72.013h-10.28l.071.14L27.824 82.66l-1.557-10.546-.12-.1zm-8.44.723h7.918l1.195 8.057-9.113-8.057z" fill="#CDAA77"/><path d="M42.566 36.513l13.163-24.422-28.226-.11 12.972 24.522a5.142 5.142 0 00-3.999 4.064L12.018 27.423l-.11 28.185 24.598-12.974a5.133 5.133 0 004.14 3.913L27.503 70.93l28.226.11-13.003-24.582c1.92-.472 3.427-2.027 3.799-3.984l24.417 13.135.11-28.185-24.568 12.953a5.124 5.124 0 00-3.919-3.863zm-1.317-.1l-12.53-23.69 25.794.1-12.721 23.59c-.09-.01-.191-.01-.292-.01-.08 0-.17 0-.25.01zm-28.598 17.98l.1-25.756L36.387 41.34c0 .06-.01.11-.01.17 0 .12.01.24.02.351L12.65 54.394zm29.322-7.786l12.54 23.71-25.794-.1 12.711-23.59h.07c.161 0 .322-.01.473-.02zm.401-.792c-.28.06-.572.09-.874.09-.16 0-.321-.03-.482-.05-2.2-.241-3.909-2.077-3.909-4.335a4.393 4.393 0 014.391-4.385 4.38 4.38 0 014.311 3.602c.03.181.04.362.05.542 0 .08.02.15.02.231 0 .2-.03.401-.06.602a4.354 4.354 0 01-3.447 3.703zm4.23-4.676L70.31 28.637l-.1 25.757L46.615 41.71c0-.06.01-.13.01-.19 0-.131 0-.252-.02-.382z" fill="#CDAA77"/><path d="M41.51 38.079a3.433 3.433 0 100 6.863c1.9 0 3.437-1.535 3.437-3.432a3.439 3.439 0 00-3.437-3.431zm0 6.14a2.702 2.702 0 01-2.703-2.699c0-1.495 1.216-2.699 2.703-2.699a2.702 2.702 0 012.703 2.7c0 1.484-1.215 2.698-2.703 2.698z" fill="#CDAA77"/><path d="M126.875 41.03c.85-.45 1.651-1.08 2.371-1.86.67-.73 1-1.66 1-2.85 0-.78-.23-1.54-.69-2.26a6.712 6.712 0 00-1.971-1.97c-.85-.58-1.87-1.05-3.03-1.39a13.425 13.425 0 00-3.742-.52H109v21.77h2.991v-9.5h7.252l.19.22 7.772 9.27h3.121l-7.282-8.66-.67-.8 1.02-.22c1.281-.26 2.451-.67 3.481-1.23zm-6.062.1h-8.822v-9.65H120.813c.831 0 1.641.12 2.411.36.76.24 1.451.57 2.031.97.61.43 1.1.94 1.45 1.53a3.77 3.77 0 01-.01 3.94c-.35.58-.84 1.09-1.44 1.52-.59.41-1.271.74-2.041.98-.75.23-1.56.35-2.401.35zM157.624 47.5c.54-.92.801-1.89.801-2.98V30.18h-2.961v14.35c0 1.97-.831 3.54-2.451 4.67-1.551 1.08-3.621 1.63-6.132 1.63-2.511 0-4.571-.55-6.122-1.64-1.62-1.14-2.44-2.71-2.44-4.66V30.18h-2.991v14.35c0 1.1.27 2.07.82 2.98.55.91 1.34 1.72 2.341 2.4 1.02.69 2.24 1.24 3.651 1.63 1.42.39 3.021.59 4.741.59 1.731 0 3.331-.2 4.761-.59 1.421-.39 2.651-.94 3.672-1.63.99-.68 1.77-1.49 2.31-2.41zM233.667 30.18h-3.121l-12.224 10.7 13.274 11.07h3.071l-12.944-10.58-.58-.47.57-.49 11.954-10.23zM216.732 51.95V30.18h-2.981v21.77h2.981zM240.789 30.18h-2.38v21.77h2.38V30.18zM255.563 51.95h2.991v-8.54l.13-.17 9.843-13.06h-2.961l-8.002 10.7-.5.67-.5-.67-8.013-10.7h-2.961l9.853 13.06.12.17v8.54zM272.658 51.95h20.467v-1.3h-17.476v-9.3h15.615v-1.3h-15.615v-8.57h16.935v-1.3h-19.926v21.77zM331.536 43.73c-.82-.76-1.85-1.38-3.081-1.85-1.26-.48-2.661-.88-4.161-1.17a67.872 67.872 0 01-4.311-.99c-1.351-.36-2.511-.83-3.441-1.38-1.061-.63-1.621-1.58-1.621-2.75 0-.6.2-1.18.6-1.72.38-.52.891-.97 1.541-1.34.62-.37 1.38-.67 2.25-.89.881-.22 1.841-.33 2.861-.33h10.494V30h-10.504c-1.52 0-2.931.17-4.211.51-1.27.34-2.371.78-3.271 1.33-.89.54-1.58 1.15-2.071 1.82-.46.64-.68 1.27-.68 1.93 0 1.2.37 2.12 1.131 2.81.83.76 1.86 1.38 3.08 1.85 1.251.48 2.651.88 4.152 1.17 1.64.33 3.051.65 4.311 1 1.36.36 2.511.83 3.441 1.38 1.06.63 1.621 1.58 1.621 2.75 0 1.25-.691 2.31-2.051 3.13-1.26.77-3.101 1.15-5.462 1.15H311.92v1.3h10.233c1.671 0 3.191-.16 4.502-.49 1.3-.32 2.42-.76 3.331-1.3.87-.52 1.54-1.12 2-1.79.44-.64.65-1.3.65-2.01.021-1.19-.35-2.11-1.1-2.81zM182.862 43.73c-.82-.76-1.85-1.38-3.081-1.85-1.26-.48-2.66-.88-4.161-1.17-1.62-.32-3.031-.65-4.311-.99-1.351-.36-2.511-.83-3.441-1.38-1.061-.63-1.621-1.58-1.621-2.75 0-.6.2-1.18.6-1.72.381-.52.891-.97 1.541-1.34.62-.37 1.38-.67 2.251-.89.88-.22 1.84-.33 2.86-.33h10.494V30h-10.504c-1.52 0-2.93.17-4.211.51-1.27.34-2.371.78-3.271 1.33-.89.54-1.58 1.15-2.07 1.82-.461.64-.681 1.27-.681 1.93 0 1.2.37 2.12 1.131 2.81.83.76 1.86 1.38 3.081 1.85 1.25.48 2.65.88 4.151 1.17 1.64.33 3.051.65 4.311 1 1.361.36 2.511.83 3.441 1.38 1.061.63 1.621 1.58 1.621 2.75 0 1.25-.69 2.31-2.051 3.13-1.26.77-3.101 1.15-5.462 1.15h-10.223v1.3h10.233c1.671 0 3.191-.16 4.502-.49 1.3-.32 2.421-.76 3.331-1.3.87-.52 1.54-1.12 2-1.79.441-.64.651-1.3.651-2.01.01-1.19-.36-2.11-1.111-2.81zM207.799 43.73c-.82-.76-1.85-1.38-3.081-1.85-1.26-.48-2.66-.88-4.161-1.17-1.62-.32-3.031-.65-4.311-.99-1.351-.36-2.511-.83-3.441-1.38-1.061-.63-1.621-1.58-1.621-2.75 0-.6.2-1.18.6-1.72.381-.52.891-.97 1.541-1.34.62-.37 1.38-.67 2.251-.89.88-.22 1.84-.33 2.86-.33h10.494V30h-10.504c-1.52 0-2.93.17-4.211.51-1.27.34-2.371.78-3.271 1.33-.89.54-1.58 1.15-2.07 1.82-.461.64-.681 1.27-.681 1.93 0 1.2.37 2.12 1.131 2.81.83.76 1.86 1.38 3.081 1.85 1.25.48 2.65.88 4.151 1.17 1.64.33 3.051.65 4.311 1 1.361.36 2.511.83 3.441 1.38 1.061.63 1.621 1.58 1.621 2.75 0 1.25-.69 2.31-2.051 3.13-1.26.77-3.101 1.15-5.462 1.15h-10.223v1.3h10.233c1.671 0 3.191-.16 4.502-.49 1.3-.32 2.421-.76 3.331-1.3.87-.52 1.54-1.12 2-1.79.441-.64.651-1.3.651-2.01.01-1.19-.35-2.11-1.111-2.81zM477.25 48.56c.44-.64.65-1.3.65-2.01 0-1.2-.37-2.12-1.121-2.81-.82-.76-1.85-1.38-3.081-1.85-1.26-.48-2.66-.88-4.161-1.17-1.62-.32-3.031-.65-4.311-.99-1.35-.36-2.511-.83-3.441-1.38-1.06-.63-1.621-1.58-1.621-2.75 0-.6.201-1.18.601-1.72.38-.52.89-.97 1.54-1.34.62-.37 1.381-.67 2.251-.89.88-.22 1.84-.33 2.861-.33h10.493V30h-10.503c-1.521 0-2.931.17-4.212.51-1.27.34-2.37.78-3.271 1.33-.89.54-1.58 1.15-2.07 1.82-.46.64-.68 1.27-.68 1.93 0 1.2.37 2.12 1.13 2.81.83.76 1.86 1.38 3.081 1.85 1.25.48 2.651.88 4.151 1.17 1.641.33 3.051.65 4.311 1 1.361.36 2.511.83 3.441 1.38 1.061.63 1.621 1.58 1.621 2.75 0 1.25-.69 2.31-2.051 3.13-1.26.77-3.101 1.15-5.461 1.15h-10.233v1.3h10.233c1.67 0 3.191-.16 4.501-.49 1.3-.32 2.421-.76 3.331-1.3.89-.52 1.56-1.12 2.021-1.78zM363.165 51.95l-12.003-21.77h-2.961l-12.034 21.77h3.071l3.001-5.34.18-.32h14.495l.18.32 3.001 5.34h3.07zm-7.932-6.98H343.06l.51-.93L349.121 34l.55-.99.551.99 5.561 10.05.51.93h-1.06v-.01zM394.124 51.95h2.991V30.18h-2.48l-12.274 18.18-.52.77-.52-.77-12.254-18.18h-2.481v21.77h2.991V34.98l1.151 1.72 10.133 15.25h1.96l10.153-15.25 1.15-1.72v16.97zM429.465 45.34a7.997 7.997 0 001.201-4.28c0-1.51-.4-2.94-1.201-4.27a12.49 12.49 0 00-3.271-3.55c-1.36-1.01-2.981-1.82-4.791-2.39a19.424 19.424 0 00-5.722-.85c-1.98 0-3.911.29-5.721.87-1.821.57-3.432 1.37-4.792 2.39-1.35 1-2.461 2.19-3.281 3.55-.8 1.32-1.2 2.76-1.2 4.26 0 1.55.39 2.95 1.2 4.28.81 1.34 1.911 2.53 3.281 3.54 1.36 1.01 2.981 1.81 4.792 2.39a19.1 19.1 0 005.721.86c1.981 0 3.901-.29 5.722-.86 1.82-.58 3.431-1.38 4.791-2.39 1.361-1.02 2.461-2.21 3.271-3.55zm-2.821-.32c-.68 1.19-1.58 2.23-2.69 3.09-1.091.85-2.381 1.53-3.831 2a14.27 14.27 0 01-4.432.71c-1.5 0-3.001-.24-4.431-.71-1.451-.48-2.741-1.15-3.841-2a10.272 10.272 0 01-2.701-3.08 8.011 8.011 0 01-1.02-3.97c0-1.42.34-2.76 1.02-3.96.67-1.19 1.57-2.23 2.701-3.09 1.11-.86 2.41-1.53 3.841-2 1.44-.47 2.931-.71 4.431-.71 1.501 0 3.001.24 4.432.71 1.44.47 2.73 1.15 3.831 2 1.11.86 2.02 1.9 2.69 3.09a7.879 7.879 0 011.041 3.96c0 1.41-.35 2.75-1.041 3.96zM441.059 51.95h2.98V31.48h10.063v-1.3h-23.106v1.3h10.063V51.95zM492.234 49.72l-.55-1.07-9.603-18.47h-3.101l11.543 21.77h3.462l11.513-21.77h-3.081l-9.623 18.47-.56 1.07zM509.419 51.95h20.466v-1.3H512.41v-9.3H528.024v-1.3H512.41v-8.57H529.345v-1.3h-19.926v21.77zM540.848 51.95h2.991V31.48h10.063v-1.3h-23.107v1.3H540.848V51.95zM567.046 51.95h2.991v-8.54l.12-.17L580 30.18h-2.951l-8.012 10.7-.5.67-.501-.67-8.002-10.7h-2.961l9.843 13.06.13.17v8.54z" fill="#000"/></svg><svg fill="inherit" viewBox="0 0 25 24" id="open-filters" xmlns="http://www.w3.org/2000/svg"><path d="M1.5 5h22v1h-22z"/><ellipse cx="18.239" cy="5.5" rx="2.391" ry="2.5"/><path d="M1.5 12h22v1h-22z"/><ellipse cx="8.674" cy="12.5" rx="2.391" ry="2.5"/><path d="M1.5 19h22v1h-22z"/><ellipse cx="18.239" cy="19.5" rx="2.391" ry="2.5"/></svg><svg fill="none" viewBox="0 0 48 48" id="promocode" xmlns="http://www.w3.org/2000/svg"><mask id="aoa" style="mask-type:alpha" maskUnits="userSpaceOnUse" x="0" y="0" width="48" height="48"><circle cx="24" cy="24" r="24" fill="#000"/></mask><g mask="url(#aoa)" stroke="#fff"><rect x="9.5" y="10.5" width="29" height="55" rx="1.5" fill="#56323F"/><path fill="#fff" d="M12.5 14.5h23v46h-23z"/><path stroke-linecap="round" d="M21.5 12.5h5"/></g><circle cx="24" cy="24" r="23.5" stroke="#fff"/><path d="M22 35.5h-6.5v-13h17v13h-6.707l-.147.146L24 37.293l-1.646-1.647-.147-.146H22z" fill="#fff" stroke="#56323F"/><path d="M18.968 29.713l-.54-.897-.536.897-.317-.224.629-.809-.945-.268.136-.316.9.316-.047-1.08h.36l-.044 1.08.9-.316.137.316-.945.268.629.809-.317.224zm2.786 0l-.54-.897-.536.897-.317-.224.629-.809-.945-.268.136-.316.901.316-.048-1.08h.36l-.044 1.08.901-.316.136.316-.945.268.629.809-.317.224zm2.787 0L24 28.816l-.536.897-.316-.224.628-.809-.945-.268.136-.316.901.316-.048-1.08h.36l-.044 1.08.901-.316.136.316-.944.268.628.809-.316.224zm2.786 0l-.54-.897-.537.897-.316-.224.628-.809-.945-.268.136-.316.901.316-.048-1.08h.36l-.044 1.08.901-.316.136.316-.944.268.628.809-.316.224zm2.786 0l-.54-.897-.537.897-.316-.224.628-.809-.945-.268.137-.316.9.316-.048-1.08h.36l-.043 1.08.9-.316.137.316-.945.268.628.809-.316.224z" fill="#56323F"/></svg><svg fill="inherit" viewBox="0 0 16 15" id="reset" xmlns="http://www.w3.org/2000/svg"><path d="M1.495.004h5v5h-1V1.497a6.502 6.502 0 108.967 6.753 6.5 6.5 0 00-4.967-7.08V.146a7.5 7.5 0 11-5.252.858H1.495v-1z"/></svg><svg fill="inherit" viewBox="0 0 24 24" id="search-icon" xmlns="http://www.w3.org/2000/svg"><path d="M9.5 4a6.5 6.5 0 014.932 10.734l5.644 5.644-.707.707-5.645-5.645A6.5 6.5 0 119.5 4zm0 1a5.5 5.5 0 100 11 5.5 5.5 0 000-11z" fill="#111"/><circle cx="9.5" cy="10.5" r="5.5"/></svg><svg fill="none" viewBox="0 0 36 36" id="stone-shape-1" xmlns="http://www.w3.org/2000/svg"><mask id="ara" fill="#fff"><path d="M29 3v30H7V3h22zm1-1H6v32h24V2z"/></mask><path d="M29 3v30H7V3h22zm1-1H6v32h24V2z" fill="#A39D94"/><path d="M29 3h1V2h-1v1zm0 30v1h1v-1h-1zM7 33H6v1h1v-1zM7 3V2H6v1h1zm23-1h1V1h-1v1zM6 2V1H5v1h1zm0 32H5v1h1v-1zm24 0v1h1v-1h-1zM28 3v30h2V3h-2zm1 29H7v2h22v-2zM8 33V3H6v30h2zM7 4h22V2H7v2zm23-3H6v2h24V1zM5 2v32h2V2H5zm1 33h24v-2H6v2zm25-1V2h-2v32h2z" fill="#A39D94" mask="url(#ara)"/><mask id="arb" fill="#fff"><path d="M27 5v26H9V5h18zm1-1H8v28h20V4z"/></mask><path d="M27 5v26H9V5h18zm1-1H8v28h20V4z" fill="#A39D94"/><path d="M27 5h1V4h-1v1zm0 26v1h1v-1h-1zM9 31H8v1h1v-1zM9 5V4H8v1h1zm19-1h1V3h-1v1zM8 4V3H7v1h1zm0 28H7v1h1v-1zm20 0v1h1v-1h-1zM26 5v26h2V5h-2zm1 25H9v2h18v-2zm-17 1V5H8v26h2zM9 6h18V4H9v2zm19-3H8v2h20V3zM7 4v28h2V4H7zm1 29h20v-2H8v2zm21-1V4h-2v28h2z" fill="#A39D94" mask="url(#arb)"/><mask id="arc" fill="#fff"><path d="M25 7v22H11V7h14zm1-1H10v24h16V6z"/></mask><path d="M25 7v22H11V7h14zm1-1H10v24h16V6z" fill="#A39D94"/><path d="M25 7h1V6h-1v1zm0 22v1h1v-1h-1zm-14 0h-1v1h1v-1zm0-22V6h-1v1h1zm15-1h1V5h-1v1zM10 6V5H9v1h1zm0 24H9v1h1v-1zm16 0v1h1v-1h-1zM24 7v22h2V7h-2zm1 21H11v2h14v-2zm-13 1V7h-2v22h2zM11 8h14V6H11v2zm15-3H10v2h16V5zM9 6v24h2V6H9zm1 25h16v-2H10v2zm17-1V6h-2v24h2z" fill="#A39D94" mask="url(#arc)"/><mask id="ard" fill="#fff"><path d="M23 9v18H13V9h10zm1-1H12v20h12V8z"/></mask><path d="M23 9v18H13V9h10zm1-1H12v20h12V8z" fill="#A39D94"/><path d="M23 9h1V8h-1v1zm0 18v1h1v-1h-1zm-10 0h-1v1h1v-1zm0-18V8h-1v1h1zm11-1h1V7h-1v1zM12 8V7h-1v1h1zm0 20h-1v1h1v-1zm12 0v1h1v-1h-1zM22 9v18h2V9h-2zm1 17H13v2h10v-2zm-9 1V9h-2v18h2zm-1-17h10V8H13v2zm11-3H12v2h12V7zM11 8v20h2V8h-2zm1 21h12v-2H12v2zm13-1V8h-2v20h2z" fill="#A39D94" mask="url(#ard)"/><path d="M23.5 27.5l5.917 5.917M12.48 27.5l-5.916 5.917M23.5 8.482l5.917-5.916M12.48 8.482L6.564 2.566" stroke="#A39D94" stroke-miterlimit="10"/></svg><svg fill="none" viewBox="0 0 36 36" id="stone-shape-10" xmlns="http://www.w3.org/2000/svg"><path d="M18 34l-9-1-7-3 1-8 4-8 5-7 6-5 6 5 5 7 4 8 1 8-7 3-9 1z" stroke="#A39D94" stroke-miterlimit="10"/><path d="M2 30l3-6 13-13 6-4M34 30h-7l-9-1-9 1H2" stroke="#A39D94" stroke-miterlimit="10"/><path d="M12 7l6 4 13 13 3 6" stroke="#A39D94" stroke-miterlimit="10"/><path d="M3 22l2 2 4 2 9 3 8-3 5-2 2-2" stroke="#A39D94" stroke-miterlimit="10"/><path d="M18 2l4 7 3 9 2 7v8M18 2l-4 7-3 9-2 7v8" stroke="#A39D94" stroke-miterlimit="10"/><path d="M9 30l9 4 9-4M22 8l7 6 2 10M14 8l-7 6-2 10" stroke="#A39D94" stroke-miterlimit="10"/></svg><svg fill="none" viewBox="0 0 36 36" id="stone-shape-11" xmlns="http://www.w3.org/2000/svg"><mask id="ata" fill="#fff"><path d="M28.586 3L33 7.414v21.172L28.586 33H7.414L3 28.586V7.414L7.414 3h21.172zM29 2H7L2 7v22l5 5h22l5-5V7l-5-5z"/></mask><path d="M28.586 3l.707-.707L29 2h-.414v1zM33 7.414h1V7l-.293-.293-.707.707zm0 21.172l.707.707L34 29v-.414h-1zM28.586 33v1H29l.293-.293-.707-.707zM7.414 33l-.707.707L7 34h.414v-1zM3 28.586H2V29l.293.293.707-.707zM3 7.414l-.707-.707L2 7v.414h1zM7.414 3V2H7l-.293.293.707.707zM29 2l.707-.707L29.414 1H29v1zM7 2V1h-.414l-.293.293L7 2zM2 7l-.707-.707L1 6.586V7h1zm0 22H1v.414l.293.293L2 29zm5 5l-.707.707.293.293H7v-1zm22 0v1h.414l.293-.293L29 34zm5-5l.707.707.293-.293V29h-1zm0-22h1v-.414l-.293-.293L34 7zm-6.121-3.293l4.414 4.414 1.414-1.414-4.414-4.414-1.414 1.414zM32 7.414v21.172h2V7.414h-2zm.293 20.465l-4.414 4.414 1.414 1.414 4.414-4.414-1.414-1.414zM28.586 32H7.414v2h21.172v-2zm-20.465.293l-4.414-4.414-1.414 1.414 4.414 4.414 1.414-1.414zM4 28.586V7.414H2v21.172h2zM3.707 8.121l4.414-4.414-1.414-1.414-4.414 4.414L3.707 8.12zM7.414 4h21.172V2H7.414v2zM29 1H7v2h22V1zm-22.707.293l-5 5 1.414 1.414 5-5-1.414-1.414zM1 7v22h2V7H1zm.293 22.707l5 5 1.414-1.414-5-5-1.414 1.414zM7 35h22v-2H7v2zm22.707-.293l5-5-1.414-1.414-5 5 1.414 1.414zM35 29V7h-2v22h2zm-.293-22.707l-5-5-1.414 1.414 5 5 1.414-1.414z" fill="#A39D94" mask="url(#ata)"/><path d="M26.877 5.646L26.73 5.5h0l3.046 3.045-2.9-2.899zm3.477 21.23l.146-.146v0l-3.77 3.77h0l.147-.146 3.477-3.477zm-24.708 0l2.9 2.9L5.5 26.73v0l.146.146z" stroke="#A39D94"/><mask id="atb" fill="#fff"><path d="M24.461 9L27 11.539v12.922L24.461 27H11.539L9 24.461V11.593L12.112 9h12.349zm.414-1H11.75L8 11.125v13.75L11.125 28h13.75L28 24.875v-13.75L24.875 8z"/></mask><path d="M24.461 9l.707-.707L24.875 8h-.414v1zM27 11.539h1v-.414l-.293-.293-.707.707zm0 12.922l.707.707.293-.293v-.414h-1zM24.461 27v1h.414l.293-.293-.707-.707zm-12.922 0l-.707.707.293.293h.414v-1zM9 24.461H8v.414l.293.293.707-.707zm0-12.868l-.64-.768-.36.3v.468h1zM12.112 9V8h-.362l-.278.232.64.768zm12.763-1l.707-.707L25.29 7h-.414v1zM11.75 8V7h-.362l-.278.232.64.768zM8 11.125l-.64-.768-.36.3v.468h1zm0 13.75H7v.414l.293.293.707-.707zM11.125 28l-.707.707.293.293h.414v-1zm13.75 0v1h.414l.293-.293-.707-.707zM28 24.875l.707.707.293-.293v-.414h-1zm0-13.75h1v-.414l-.293-.293-.707.707zm-4.246-1.418l2.539 2.54 1.414-1.415-2.539-2.54-1.414 1.415zM26 11.54v12.922h2V11.539h-2zm.293 12.215l-2.54 2.539 1.415 1.414 2.54-2.539-1.415-1.414zM24.46 26H11.539v2h12.922v-2zm-12.215.293l-2.539-2.54-1.414 1.415 2.539 2.54 1.414-1.415zM10 24.46V11.593H8v12.868h2zm-.36-12.1l3.112-2.593-1.28-1.536-3.112 2.593 1.28 1.536zM12.112 10h12.349V8H12.112v2zm12.763-3H11.75v2h13.125V7zm-13.765.232l-3.75 3.125 1.28 1.536 3.75-3.125-1.28-1.536zM7 11.125v13.75h2v-13.75H7zm.293 14.457l3.125 3.125 1.414-1.414-3.125-3.125-1.414 1.414zM11.125 29h13.75v-2h-13.75v2zm14.457-.293l3.125-3.125-1.414-1.414-3.125 3.125 1.414 1.414zM29 24.875v-13.75h-2v13.75h2zm-.293-14.457l-3.125-3.125-1.414 1.414 3.125 3.125 1.414-1.414z" fill="#A39D94" mask="url(#atb)"/><path d="M28.722 2.5l-4.11 6.056M33.528 7.167l-6.06 4.126M7.414 2.5l4.111 6.056M2.608 7.167l6.06 4.126M28.722 33.642l-4-6.086M33.57 28.875l-6.084-4.292M7.347 33.583l3.972-6.055M2.583 28.764l5.973-4.083" stroke="#A39D94" stroke-miterlimit="10"/></svg><svg fill="none" viewBox="0 0 36 36" id="stone-shape-12" xmlns="http://www.w3.org/2000/svg"><mask id="aua" fill="#fff"><path d="M25.586 3L29 6.414v23.172L25.586 33H10.414L7 29.586V6.414L10.414 3h15.172zM26 2H10L6 6v24l4 4h16l4-4V6l-4-4z"/></mask><path d="M25.586 3L29 6.414v23.172L25.586 33H10.414L7 29.586V6.414L10.414 3h15.172zM26 2H10L6 6v24l4 4h16l4-4V6l-4-4z" fill="#A39D94"/><path d="M25.586 3l.707-.707L26 2h-.414v1zM29 6.414h1V6l-.293-.293-.707.707zm0 23.172l.707.707L30 30v-.414h-1zM25.586 33v1H26l.293-.293-.707-.707zm-15.172 0l-.707.707L10 34h.414v-1zM7 29.586H6V30l.293.293.707-.707zM7 6.414l-.707-.707L6 6v.414h1zM10.414 3V2H10l-.293.293.707.707zM26 2l.707-.707L26.414 1H26v1zM10 2V1h-.414l-.293.293L10 2zM6 6l-.707-.707L5 5.586V6h1zm0 24H5v.414l.293.293L6 30zm4 4l-.707.707.293.293H10v-1zm16 0v1h.414l.293-.293L26 34zm4-4l.707.707.293-.293V30h-1zm0-24h1v-.414l-.293-.293L30 6zm-5.121-2.293l3.414 3.414 1.414-1.414-3.414-3.414-1.414 1.414zM28 6.414v23.172h2V6.414h-2zm.293 22.465l-3.414 3.414 1.414 1.414 3.414-3.414-1.414-1.414zM25.586 32H10.414v2h15.172v-2zm-14.465.293l-3.414-3.414-1.414 1.414 3.414 3.414 1.414-1.414zM8 29.586V6.414H6v23.172h2zM7.707 7.121l3.414-3.414-1.414-1.414-3.414 3.414L7.707 7.12zM10.414 4h15.172V2H10.414v2zM26 1H10v2h16V1zm-16.707.293l-4 4 1.414 1.414 4-4-1.414-1.414zM5 6v24h2V6H5zm.293 24.707l4 4 1.414-1.414-4-4-1.414 1.414zM10 35h16v-2H10v2zm16.707-.293l4-4-1.414-1.414-4 4 1.414 1.414zM31 30V6h-2v24h2zm-.293-24.707l-4-4-1.414 1.414 4 4 1.414-1.414z" fill="#A39D94" mask="url(#aua)"/><mask id="aub" fill="#fff"><path d="M24.17 5L27 7.83v20.34L24.17 31H11.83L9 28.17V7.83L11.83 5h12.34zm.414-1H11.416L8 7.416v21.168L11.416 32h13.168L28 28.584V7.416L24.584 4z"/></mask><path d="M24.17 5L27 7.83v20.34L24.17 31H11.83L9 28.17V7.83L11.83 5h12.34zm.414-1H11.416L8 7.416v21.168L11.416 32h13.168L28 28.584V7.416L24.584 4z" fill="#A39D94"/><path d="M24.17 5l.707-.707L24.584 4h-.414v1zM27 7.83h1v-.414l-.293-.293L27 7.83zm0 20.34l.707.707.293-.293v-.414h-1zM24.17 31v1h.414l.293-.293L24.17 31zm-12.34 0l-.707.707.293.293h.414v-1zM9 28.17H8v.414l.293.293L9 28.17zM9 7.83l-.707-.707L8 7.416v.414h1zM11.83 5V4h-.414l-.293.293.707.707zm-.414-1V3h-.414l-.293.293.707.707zM8 7.416l-.707-.707L7 7.002v.414h1zm0 21.168H7v.414l.293.293.707-.707zM11.416 32l-.707.707.293.293h.414v-1zm13.168 0v1h.414l.293-.293-.707-.707zM28 28.584l.707.707.293-.293v-.414h-1zm0-21.168h1v-.414l-.293-.293-.707.707zm-4.537-1.709l2.83 2.83 1.414-1.414-2.83-2.83-1.414 1.414zM26 7.83v20.34h2V7.83h-2zm.293 19.633l-2.83 2.83 1.414 1.414 2.83-2.83-1.414-1.414zM24.17 30H11.83v2h12.34v-2zm-11.633.293l-2.83-2.83-1.414 1.414 2.83 2.83 1.414-1.414zM10 28.17V7.83H8v20.34h2zM9.707 8.537l2.83-2.83-1.414-1.414-2.83 2.83 1.414 1.414zM11.83 6h12.34V4H11.83v2zm12.754-3H11.416v2h13.168V3zm-13.875.293L7.293 6.709l1.414 1.414 3.416-3.416-1.414-1.414zM7 7.416v21.168h2V7.416H7zm.293 21.875l3.416 3.416 1.414-1.414-3.416-3.416-1.414 1.414zM11.416 33h13.168v-2H11.416v2zm13.875-.293l3.416-3.416-1.414-1.414-3.416 3.416 1.414 1.414zM29 28.584V7.416h-2v21.168h2zm-.293-21.875l-3.416-3.416-1.414 1.414 3.416 3.416 1.414-1.414z" fill="#A39D94" mask="url(#aub)"/><path d="M25.5 9.036l-.146-.147-2.243-2.243-.354.354v-.5h.208L25.5 9.035v0zm-.146 18.075l.146-.147v0L22.965 29.5h0l.146-.146 2.243-2.243zm-12.465 2.243l.147.146h0L10.5 26.965v0l.146.146 2.243 2.243zM10.646 8.889l-.146.147v0L13.035 6.5h0l-.146.146-2.243 2.243z" fill="#A39D94" stroke="#A39D94"/><mask id="auc" fill="#fff"><path d="M21.35 9L23 10.65v14.7L21.35 27h-6.7L13 25.35v-14.7L14.65 9h6.7zm.414-1h-7.528L12 10.236v15.528L14.236 28h7.528L24 25.764V10.236L21.764 8z"/></mask><path d="M21.35 9L23 10.65v14.7L21.35 27h-6.7L13 25.35v-14.7L14.65 9h6.7zm.414-1h-7.528L12 10.236v15.528L14.236 28h7.528L24 25.764V10.236L21.764 8z" fill="#A39D94"/><path d="M21.35 9l.707-.707L21.764 8h-.414v1zM23 10.65h1v-.414l-.293-.293-.707.707zm0 14.7l.707.707.293-.293v-.414h-1zM21.35 27v1h.414l.293-.293L21.35 27zm-6.7 0l-.707.707.293.293h.414v-1zM13 25.35h-1v.414l.293.293.707-.707zm0-14.7l-.707-.707-.293.293v.414h1zM14.65 9V8h-.414l-.293.293.707.707zm-.414-1V7h-.414l-.293.293.707.707zM12 10.236l-.707-.707-.293.293v.414h1zm0 15.528h-1v.414l.293.293.707-.707zM14.236 28l-.707.707.293.293h.414v-1zm7.528 0v1h.414l.293-.293-.707-.707zM24 25.764l.707.707.293-.293v-.414h-1zm0-15.528h1v-.414l-.293-.293-.707.707zm-3.357-.529l1.65 1.65 1.414-1.414-1.65-1.65-1.414 1.414zM22 10.65v14.7h2v-14.7h-2zm.293 13.993l-1.65 1.65 1.414 1.414 1.65-1.65-1.414-1.414zM21.35 26h-6.7v2h6.7v-2zm-5.993.293l-1.65-1.65-1.414 1.414 1.65 1.65 1.414-1.414zM14 25.35v-14.7h-2v14.7h2zm-.293-13.993l1.65-1.65-1.414-1.414-1.65 1.65 1.414 1.414zM14.65 10h6.7V8h-6.7v2zm7.114-3h-7.528v2h7.528V7zm-8.235.293l-2.236 2.236 1.414 1.414 2.236-2.236-1.414-1.414zM11 10.236v15.528h2V10.236h-2zm.293 16.235l2.236 2.236 1.414-1.414-2.236-2.236-1.414 1.414zM14.236 29h7.528v-2h-7.528v2zm8.235-.293l2.236-2.236-1.414-1.414-2.236 2.236 1.414 1.414zM25 25.764V10.236h-2v15.528h2zm-.293-16.235l-2.236-2.236-1.414 1.414 2.236 2.236 1.414-1.414z" fill="#A39D94" mask="url(#auc)"/><path d="M25.896 2.625l-4.284 5.911M10.154 2.56l4.284 5.912M23.479 10.458l6.084-4.291M12.384 10.458L6.3 6.167M25.896 33.422l-4.284-5.91M10.154 33.485l4.284-5.91M23.479 25.588l6.084 4.292M12.384 25.588L6.3 29.88M25.896 33.51l-4.284-5.91M10.154 33.574l4.284-5.91M23.479 25.677l6.084 4.292M12.384 25.677L6.3 29.969" stroke="#A39D94" stroke-miterlimit="10"/></svg><svg fill="none" viewBox="0 0 36 36" id="stone-shape-13" xmlns="http://www.w3.org/2000/svg"><mask id="ava" fill="#fff"><path d="M27.473 3L33 8.527V27.6l-5.527 5.527H8.527L3 27.6V8.527L8.527 3h18.946zm.414-1H8.113L2 8.113v19.9l6.113 6.113h19.774L34 28.012V8.113L27.887 2z"/></mask><path d="M27.473 3L33 8.527V27.6l-5.527 5.527H8.527L3 27.6V8.527L8.527 3h18.946zm.414-1H8.113L2 8.113v19.9l6.113 6.113h19.774L34 28.012V8.113L27.887 2z" fill="#A39D94"/><path d="M27.473 3l.707-.707L27.887 2h-.414v1zM33 8.527h1v-.414l-.293-.293-.707.707zM33 27.6l.707.707.293-.293V27.6h-1zm-5.527 5.527v1h.414l.293-.293-.707-.707zm-18.946 0l-.707.707.293.293h.414v-1zM3 27.6H2v.414l.293.293L3 27.6zM3 8.527l-.707-.707L2 8.113v.414h1zM8.527 3V2h-.414l-.293.293.707.707zm19.36-1l.707-.707L28.301 1h-.414v1zM8.113 2V1h-.414l-.293.293.707.707zM2 8.113l-.707-.707L1 7.699v.414h1zm0 19.9H1v.414l.293.293.707-.707zm6.113 6.113l-.707.707.293.293h.414v-1zm19.774 0v1h.414l.293-.293-.707-.707zM34 28.012l.707.707.293-.293v-.414h-1zm0-19.899h1v-.414l-.293-.293-.707.707zm-7.234-4.406l5.527 5.527 1.414-1.414-5.527-5.527-1.414 1.414zM32 8.527V27.6h2V8.527h-2zm.293 18.366l-5.527 5.527 1.414 1.414 5.527-5.527-1.414-1.414zm-4.82 5.234H8.527v2h18.946v-2zm-18.239.293l-5.527-5.527-1.414 1.414 5.527 5.527 1.414-1.414zM4 27.6V8.527H2V27.6h2zM3.707 9.234l5.527-5.527L7.82 2.293 2.293 7.82l1.414 1.414zM8.527 4h18.946V2H8.527v2zm19.36-3H8.113v2h19.774V1zm-20.481.293L1.293 7.406 2.707 8.82 8.82 2.707 7.406 1.293zM1 8.113v19.9h2v-19.9H1zm.293 20.607l6.113 6.113L8.82 33.42l-6.113-6.113-1.414 1.414zm6.82 6.406h19.774v-2H8.113v2zm20.481-.293l6.113-6.114-1.414-1.414-6.113 6.114 1.414 1.414zM35 28.012V8.113h-2v19.899h2zm-.293-20.606l-6.113-6.113-1.414 1.414 6.113 6.113 1.414-1.414z" fill="#A39D94" mask="url(#ava)"/><path d="M8.5 2.5L11 11M25 11l2.5-8.5M33.5 8.5L25 11M2.5 8.5L11 11M25 25l8.5 2.5M27.5 33.5L25 25M8.5 33.5L11 25M2.5 27.5L11 25M31 27V9l-4-4H9L5 9v18l4 4h18l4-4zm0 0l-4-9-2-7-7-2-9-4" stroke="#A39D94" stroke-miterlimit="10"/><path d="M27 5l-9 4-7 2-1 7 1 7 7 2 9 4" stroke="#A39D94" stroke-miterlimit="10"/><path d="M31 9l-4 9-2 7-7 2-9 4M5 9l5 9-5 9" stroke="#A39D94" stroke-miterlimit="10"/></svg><svg fill="none" viewBox="0 0 36 36" id="stone-shape-14" xmlns="http://www.w3.org/2000/svg"><mask id="awa" fill="#fff"><path d="M27.473 3L33 8.527V27.6l-5.527 5.527H8.527L3 27.6V8.527L8.527 3h18.946zm.414-1H8.113L2 8.113v19.9l6.113 6.113h19.774L34 28.012V8.113L27.887 2z"/></mask><path d="M27.473 3L33 8.527V27.6l-5.527 5.527H8.527L3 27.6V8.527L8.527 3h18.946zm.414-1H8.113L2 8.113v19.9l6.113 6.113h19.774L34 28.012V8.113L27.887 2z" fill="#A39D94"/><path d="M27.473 3l.707-.707L27.887 2h-.414v1zM33 8.527h1v-.414l-.293-.293-.707.707zM33 27.6l.707.707.293-.293V27.6h-1zm-5.527 5.527v1h.414l.293-.293-.707-.707zm-18.946 0l-.707.707.293.293h.414v-1zM3 27.6H2v.414l.293.293L3 27.6zM3 8.527l-.707-.707L2 8.113v.414h1zM8.527 3V2h-.414l-.293.293.707.707zm19.36-1l.707-.707L28.301 1h-.414v1zM8.113 2V1h-.414l-.293.293.707.707zM2 8.113l-.707-.707L1 7.699v.414h1zm0 19.9H1v.414l.293.293.707-.707zm6.113 6.113l-.707.707.293.293h.414v-1zm19.774 0v1h.414l.293-.293-.707-.707zM34 28.012l.707.707.293-.293v-.414h-1zm0-19.899h1v-.414l-.293-.293-.707.707zm-7.234-4.406l5.527 5.527 1.414-1.414-5.527-5.527-1.414 1.414zM32 8.527V27.6h2V8.527h-2zm.293 18.366l-5.527 5.527 1.414 1.414 5.527-5.527-1.414-1.414zm-4.82 5.234H8.527v2h18.946v-2zm-18.239.293l-5.527-5.527-1.414 1.414 5.527 5.527 1.414-1.414zM4 27.6V8.527H2V27.6h2zM3.707 9.234l5.527-5.527L7.82 2.293 2.293 7.82l1.414 1.414zM8.527 4h18.946V2H8.527v2zm19.36-3H8.113v2h19.774V1zm-20.481.293L1.293 7.406 2.707 8.82 8.82 2.707 7.406 1.293zM1 8.113v19.9h2v-19.9H1zm.293 20.607l6.113 6.113L8.82 33.42l-6.113-6.113-1.414 1.414zm6.82 6.406h19.774v-2H8.113v2zm20.481-.293l6.113-6.114-1.414-1.414-6.113 6.114 1.414 1.414zM35 28.012V8.113h-2v19.899h2zm-.293-20.606l-6.113-6.113-1.414 1.414 6.113 6.113 1.414-1.414z" fill="#A39D94" mask="url(#awa)"/><path d="M8.5 2.5L11 11M25 11l2.5-8.5M33.5 8.5L25 11M2.5 8.5L11 11M25 25l8.5 2.5M27.5 33.5L25 25M8.5 33.5L11 25M2.5 27.5L11 25M31 27V9l-4-4H9L5 9v18l4 4h18l4-4zm0 0l-4-9-2-7-7-2-9-4" stroke="#A39D94" stroke-miterlimit="10"/><path d="M27 5l-9 4-7 2-1 7 1 7 7 2 9 4" stroke="#A39D94" stroke-miterlimit="10"/><path d="M31 9l-4 9-2 7-7 2-9 4M5 9l5 9-5 9" stroke="#A39D94" stroke-miterlimit="10"/></svg><svg fill="none" viewBox="0 0 36 36" id="stone-shape-2" xmlns="http://www.w3.org/2000/svg"><path d="M28 23.775C28 29.2 23.98 34 18.003 34S8 29.203 8 23.775C8 16.904 11.947 9.017 17.997 2 24.05 9.02 28 16.907 28 23.775z" stroke="#A39D94"/><path d="M11 13v7l3 9 1 2 3 3M14 7l11.145 13.189L28 24" stroke="#A39D94" stroke-miterlimit="10"/><path d="M22 7L10.834 20.216 8 24" stroke="#A39D94" stroke-miterlimit="10"/><path d="M20 9l5 4v7l-3 9-1 2-3 3M16 9l-5 4v7l3 9 1 2 3 3M25 20l2-2M11 20l-2-2" stroke="#A39D94" stroke-miterlimit="10"/><path d="M28 24.276L25.231 27l-10.165 4-3.885-.166L11 27l7.116-25" stroke="#A39D94" stroke-miterlimit="10"/><path d="M8 24.13L10.891 27l10.078 4 3.874-.166L25 27 17.946 2" stroke="#A39D94" stroke-miterlimit="10"/></svg><svg fill="none" viewBox="0 0 36 36" id="stone-shape-3" xmlns="http://www.w3.org/2000/svg"><circle cx="18" cy="18" r="15.5" stroke="#A39D94"/><path stroke="#A39D94" d="M14.15 8.654l13.196 5.497-5.497 13.196L8.653 21.85z"/><path stroke="#A39D94" d="M27.33 21.888l-13.217 5.444-5.444-13.218L21.887 8.67z"/><path d="M18 2.776l4.062 4.817.168.2.26-.024 6.313-.572-.572 6.314-.024.26.2.167L33.224 18l-4.817 4.062-.2.168.024.26.572 6.313-6.314-.572-.26-.024-.167.2L18 33.224l-4.062-4.817-.168-.2-.26.024-6.313.572.572-6.314.024-.26-.2-.167L2.776 18l4.817-4.062.2-.168-.024-.26-.572-6.313 6.314.572.26.024.167-.2L18 2.776zM8.846 21.77L4 23.792m4.828-9.655L4 12.207m10.138-3.38L12.207 4m9.655 4.828L23.793 4m3.38 10.138L32 12.207m-4.828 9.655L32 23.793m-10.138 3.38L23.793 32m-9.655-4.828L12.207 32" stroke="#A39D94"/></svg><svg fill="none" viewBox="0 0 36 36" id="stone-shape-4" xmlns="http://www.w3.org/2000/svg"><path d="M9.604 2.5h16.792A7.104 7.104 0 0133.5 9.604v16.792a7.104 7.104 0 01-7.104 7.104H9.604A7.104 7.104 0 012.5 26.396V9.604A7.104 7.104 0 019.604 2.5zM25 12l-1-6" stroke="#A39D94" stroke-miterlimit="10"/><path d="M31 4v9l-6-1M18 2.5L24 6l7-2" stroke="#A39D94" stroke-miterlimit="10"/><path d="M26 2.5L24 6l-6 3 7 3 2 6 4-5M33.5 10.5L31 13l2 5-2 5M31 32l-8-2m0 0l-5-3 7-3-2 6zM33.5 25.5L31 23m0 0l-4-5-2 6 6-1zm0 0v8.5M18.5 33.5L23 30l1.5 3.5M11 12l1-6M5 4.5V13l6-1M18 2.5L12 6 5 4" stroke="#A39D94" stroke-miterlimit="10"/><path d="M10 2.5L12 6l6 3-7 3-2 6-4-5M2.5 10.5L5 13l-2 5 2 5M4.5 31.5L13 30m0 0l5-3-7-3 2 6zM2.5 25.5L5 23m0 0l4-5 2 6-6-1zm0 0v8.5M17.5 33.5L13 30l-1.5 3.5" stroke="#A39D94" stroke-miterlimit="10"/></svg><svg fill="none" viewBox="0 0 36 36" id="stone-shape-5" xmlns="http://www.w3.org/2000/svg"><path d="M26 18c0 10-8 16-8 16s-8-6-8-16 8-16 8-16 8 6 8 16zM24 26l-4 4" stroke="#A39D94" stroke-miterlimit="10"/><path d="M18 2l2 5 2.986 17L24 26" stroke="#A39D94" stroke-miterlimit="10"/><path d="M18 34l1.986-5.014L23 13l1-3-4-4M12.476 27.357L16 30M18 2l-2 5-3.014 17-.876 2.665" stroke="#A39D94" stroke-miterlimit="10"/><path d="M26 18l-3.014 6-2.382 2L18 28l-2.571-2-2.443-2L10 18M10 18l3-5 2-2 3-3 3 3 2 2 3 5M21 5l-3 3-3-3M18 28l-3 2.986M21 30.986L18 28" stroke="#A39D94" stroke-miterlimit="10"/><path d="M16 6l-4 4 1 3 2.986 15.986L18 34" stroke="#A39D94" stroke-miterlimit="10"/></svg><svg fill="none" viewBox="0 0 36 36" id="stone-shape-6" xmlns="http://www.w3.org/2000/svg"><path d="M18 34c5.523 0 10-7.163 10-16S23.523 2 18 2 8 9.163 8 18s4.477 16 10 16z" stroke="#A39D94" stroke-miterlimit="10"/><path d="M18 2l3 5 4 16v6l-4-1-3-2 4-2 3-1 3-5" stroke="#A39D94" stroke-miterlimit="10"/><path d="M22 3l-1 4h4v6l-3 11-1 4-3 6M27 12l-2 1 3 4M21 28l1 5M25 23l2 1" stroke="#A39D94" stroke-miterlimit="10"/><path d="M25 13l-7-4 3-2M18 2l-3 5-4 16v6l4-1 3-2-4-2-3-1-3-5" stroke="#A39D94" stroke-miterlimit="10"/><path d="M14 3l1 4h-4v6l3 11 1 4 3 6M9 12l2 1-3 4M15 28l-1 5M11 23l-2 1" stroke="#A39D94" stroke-miterlimit="10"/><path d="M11 13l7-4-3-2" stroke="#A39D94" stroke-miterlimit="10"/></svg><svg fill="none" viewBox="0 0 36 36" id="stone-shape-7" xmlns="http://www.w3.org/2000/svg"><path d="M21 8l2.677-5.354M23 10l4.432-2.66M15 8l-2.677-5.354M13 10L8.55 7.331M21 28l2.728 5.456M23 26l4.428 2.657" stroke="#A39D94" stroke-miterlimit="10"/><path d="M23.91 2.688l-.15-.188h0l3.74 4.675v0l-.11-.136-3.48-4.351zm0 30.624l.727-.908-.877 1.096h0l.15-.188zm-11.82 0l.15.188h0L8.5 28.825v0l.11.136 3.48 4.351zM8.61 7.04l-.11.137v0L12.24 2.5h0l-.15.188-3.48 4.35z" stroke="#A39D94"/><path clip-rule="evenodd" d="M14 30l-3-3.021V9.021L14 6h8l3 3.021v17.958L22 30h-8z" stroke="#A39D94" stroke-width="1.018" stroke-miterlimit="10"/><path clip-rule="evenodd" d="M15 28l-2-2V10l2-2h6l2 2v16l-2 2h-6z" stroke="#A39D94" stroke-miterlimit="10"/><path d="M15 28l-2.7 5.4M13 26l-4.473 2.684" stroke="#A39D94" stroke-miterlimit="10"/></svg><svg fill="none" viewBox="0 0 36 36" id="stone-shape-8" xmlns="http://www.w3.org/2000/svg"><path d="M33 33H3V3h30v30z" stroke="#A39D94" stroke-width=".938" stroke-miterlimit="10"/><path d="M33 3l-3.75 1.875L18 3 6.75 4.875 3 3M33 33l-1.875-3.75L33 18 31.125 6.75 33 3M3 33l3.75-1.875L18 33l11.25-1.875L33 33M3 3l1.875 3.75L3 18l1.875 11.25L3 33M6.75 31.125l.925-2.825-2.8-21.55 2.812.938L29.25 4.875l-.937 2.813 2.812 21.562-2.812-.95L6.75 31.125zM29.25 31.125H6.75M31.125 6.75v22.5M29.25 4.875H6.75" stroke="#A39D94" stroke-width=".938" stroke-miterlimit="10"/><path d="M4.875 6.75v22.5l2.8-.95 21.575 2.825-.937-2.825 2.812-21.55-2.812.938L6.75 4.875 7.583 7.7 4.875 29.25" stroke="#A39D94" stroke-width=".938" stroke-miterlimit="10"/></svg><svg fill="none" viewBox="0 0 36 36" id="stone-shape-9" xmlns="http://www.w3.org/2000/svg"><path d="M18 6a7.943 7.943 0 00-7-4c-2 0-9 1-9 9 0 11 7 18 16 23 9-5 16-12 16-23 0-4.82-2.542-7.1-5-8.15A10.8 10.8 0 0025 2a7.943 7.943 0 00-7 4v0z" stroke="#A39D94" stroke-miterlimit="10"/><path d="M18 8l6-3 5-2M18 6v2M29 3v5l-4 13-5 7-2 6M29 8l5 4M30 17l4-5M24 2v3l-4.5-1" stroke="#A39D94" stroke-miterlimit="10"/><path d="M24 5l1 3 5 9-1 8M20 28l4 2M29 25l-9 3" stroke="#A39D94" stroke-miterlimit="10"/><path d="M33 18l-3-1-5 4-7 4 2 3M18 8l-6-3-5-2M18 6v2M7 3v5l4 13 5 7 2 6" stroke="#A39D94" stroke-miterlimit="10"/><path d="M4 5l3 3h22l3-3M7 8l-5 4M6 17l-4-5M12 2v3l4.5-1" stroke="#A39D94" stroke-miterlimit="10"/><path d="M12 5l-1 3-5 9 1 8M16 28l-4 2M7 25l9 3" stroke="#A39D94" stroke-miterlimit="10"/><path d="M3 18l3-1 5 4 7 4-2 3" stroke="#A39D94" stroke-miterlimit="10"/></svg><svg fill="none" viewBox="0 0 24 24" id="tel" xmlns="http://www.w3.org/2000/svg"><path d="M19.5 22c.827 0 1.5-.673 1.5-1.5V17c0-.827-.673-1.5-1.5-1.5-1.17 0-2.32-.184-3.42-.547a1.524 1.524 0 00-1.523.363l-1.44 1.44a14.655 14.655 0 01-5.885-5.883L8.66 9.436c.412-.382.56-.963.384-1.522A10.872 10.872 0 018.5 4.5C8.5 3.673 7.827 3 7 3H3.5C2.673 3 2 3.673 2 4.5 2 14.15 9.85 22 19.5 22zM3.5 4H7a.5.5 0 01.5.5c0 1.277.2 2.531.593 3.72a.473.473 0 01-.127.497L6.01 10.683c1.637 3.228 4.055 5.646 7.298 7.297l1.949-1.95a.516.516 0 01.516-.126c1.196.396 2.45.596 3.727.596.275 0 .5.225.5.5v3.5c0 .275-.225.5-.5.5C10.402 21 3 13.598 3 4.5a.5.5 0 01.5-.5z" fill="#111"/></svg><svg fill="inherit" viewBox="0 0 56 56" id="telegram" xmlns="http://www.w3.org/2000/svg"><g clip-path="url(#bgclip0_269_4080)"><path d="M28.008 56C12.448 56.008-.008 43.53 0 27.972A27.905 27.905 0 0128.064 0 27.9 27.9 0 0156 27.956C56.016 43.522 43.568 56 28.008 56zm13.376-37.523c.056-1.151-.136-2.135-1.552-2.12-.632.009-1.288.273-1.896.52A7656.102 7656.102 0 0015.68 26.06c-1.64.68-3.272 1.384-4.896 2.112-.512.232-1.008.544-1 1.216 0 .72.576.912 1.104 1.088 1.64.544 3.264 1.143 4.936 1.551 1.504.36 2.944.248 4.344-.736 3.616-2.543 7.32-4.975 11.008-7.406.68-.448 1.648-1.448 2.232-.744.584.696-.568 1.44-1.152 2.007a889.016 889.016 0 01-7.952 7.591c-.88.84-1.176 1.776-.128 2.592 3.248 2.528 6.576 4.967 10.264 6.823 1.944.976 3.096.288 3.48-1.872.504-2.847.952-5.703 1.4-8.558.712-4.416 1.384-8.831 2.064-13.247z"/></g><defs><clipPath id="bgclip0_269_4080"><path d="M0 0h56v56H0z"/></clipPath></defs></svg><svg fill="none" viewBox="0 0 28 28" id="tooltip" xmlns="http://www.w3.org/2000/svg"><path d="M7.744 8.246a8.5 8.5 0 1112.512 11.508A8.5 8.5 0 017.744 8.246h0z" stroke="#449AB5"/><path d="M13 10.5h1.5V9H13v1.5zM13 19.5h1.5v-8H13v8z" fill="#449AB5"/></svg><svg fill="inherit" viewBox="0 0 56 56" id="vk" xmlns="http://www.w3.org/2000/svg"><g clip-path="url(#biclip0_269_4082)"><path d="M29.135 55.998h-2.448c-.032-.008-.064-.023-.104-.023-.864-.08-1.736-.129-2.592-.24a25.706 25.706 0 01-4.831-1.136c-4.344-1.464-8.104-3.856-11.288-7.168a27.864 27.864 0 01-4.904-6.96 27.764 27.764 0 01-2.264-6.374 26.672 26.672 0 01-.656-5.344L0 28.025v-.184c.008-.064.024-.128.024-.192.016-.424.016-.84.04-1.264a25.98 25.98 0 01.528-4.088 27.949 27.949 0 012.488-7.055 27.713 27.713 0 015.68-7.567c3.072-2.904 6.624-5.032 10.647-6.328A27.368 27.368 0 0128.383.004c1.72.024 3.424.208 5.112.543 2.392.48 4.68 1.256 6.872 2.336a28.067 28.067 0 017.768 5.664 27.619 27.619 0 015.168 7.423 27.414 27.414 0 012.592 9.487c.111 1.264.127 2.536.08 3.808a26.644 26.644 0 01-.456 3.904 27.408 27.408 0 01-2.632 7.63 27.922 27.922 0 01-8.04 9.552 27.54 27.54 0 01-10.224 4.856 26.51 26.51 0 01-4.616.712c-.288.024-.584.056-.872.08zm-7.632-37.812c.2.08.384.184.584.24.816.224 1.296.776 1.528 1.576.28.984.352 1.992.344 3a26.879 26.879 0 01-.144 2.663c-.048.496-.2.992-.36 1.464-.16.48-.568.696-1.016.592-.208-.048-.408-.168-.6-.28-.488-.296-.8-.768-1.136-1.224-1.68-2.312-3.023-4.823-4.12-7.455-.327-.784-.791-1.104-1.631-1.104H9.76c-.128 0-.264 0-.392.032-.776.184-1.04.552-.72 1.304 1.584 3.695 3.416 7.263 5.552 10.663 1.448 2.312 3.111 4.44 5.192 6.215 1.391 1.184 2.943 2.056 4.703 2.56.992.28 2 .448 3.024.544.912.08 1.832.144 2.752.072.744-.064 1.184-.44 1.328-1.168.04-.208.048-.432.064-.648.04-.424.056-.848.112-1.272.08-.584.28-1.128.632-1.608.464-.631 1.128-.735 1.76-.28.216.16.44.32.632.512.936.944 1.88 1.88 2.784 2.856.832.904 1.816 1.456 3.032 1.616 1.032.136 2.064.048 3.096.064.88.008 1.752.016 2.632.032.664.008 1.264-.304 1.488-.992.152-.464.056-.896-.152-1.328-.296-.616-.72-1.136-1.176-1.632a693.924 693.924 0 00-3.296-3.56c-.368-.391-.776-.751-1.152-1.151-.568-.6-.648-1.176-.288-1.912a4.11 4.11 0 01.36-.6c1.304-1.816 2.616-3.632 3.912-5.456.504-.711 1.048-1.4 1.4-2.207.232-.536.52-1.04.544-1.648.008-.232-.032-.44-.24-.544-.448-.216-.912-.416-1.416-.44a53.566 53.566 0 00-2.272-.04c-1.288 0-2.584.016-3.872.008-.648 0-1.104.272-1.376.856-.152.32-.296.648-.44.968-1.024 2.264-2.088 4.503-3.584 6.503-.408.544-.824 1.064-1.352 1.488-.4.32-.824.288-1.2-.064-.408-.384-.584-.856-.584-1.408 0-2.272 0-4.543.008-6.815 0-.2 0-.4-.008-.6-.048-1.016-.672-1.624-1.688-1.64-1.08-.016-2.16-.024-3.24-.04-.576-.008-1.152-.024-1.728-.024-.512.008-1.032 0-1.544.064-.744.128-1.232.568-1.544 1.248z"/></g><defs><clipPath id="biclip0_269_4082"><path d="M0 0h56v55.998H0z"/></clipPath></defs></svg></svg>