<?xml version="1.0" encoding="utf-8"?><svg viewBox="0 0 24 24" xmlns="http://www.w3.org/2000/svg" xmlns:xlink="http://www.w3.org/1999/xlink"><style>:root>svg{display:none}:root>svg:target{display:block}</style><svg fill="none" viewBox="0 0 24 24" id="cabinet-icon" xmlns="http://www.w3.org/2000/svg"><g clip-path="url(#aclip0_269_3122)" fill="#111"><path fill-rule="evenodd" clip-rule="evenodd" d="M8.518 13.223a8.23 8.23 0 00-4.554 2.313A3.292 3.292 0 003 17.863V21h18v-3.307a2.88 2.88 0 00-.844-2.037 8.642 8.642 0 00-4.687-2.413 3.593 3.593 0 01-.851.903 7.642 7.642 0 014.831 2.217c.353.353.551.831.551 1.33V20H4v-2.137c0-.607.242-1.19.671-1.62a7.23 7.23 0 014.699-2.106 3.591 3.591 0 01-.852-.914z"/><path d="M10.276 13.653l-.155.475h0-.002l-.003-.001-.01-.003-.03-.01a4.679 4.679 0 01-.72-.331c.195.117.402.222.619.313.63.264 1.32.403 2.023.404.703 0 1.395-.136 2.025-.4.243-.102.475-.221.692-.356a3.933 3.933 0 01-.35.188 4.81 4.81 0 01-.441.185l-.024.008a4.97 4.97 0 01-1.902.373c-.364 0-.847-.1-1.202-.187a13.578 13.578 0 01-.612-.163l-.039-.012-.01-.003-.004-.001h0l.145-.479zm0 0l-.155.476.009.002.146-.478zm4.714-.095l-.126.089c.04-.029.082-.059.122-.09l.004.001zm-5.886.061c-.03-.02-.06-.041-.089-.063h.004c.028.021.056.043.085.063z" stroke="#111"/><path fill-rule="evenodd" clip-rule="evenodd" d="M12 11c1.972 0 4-2.028 4-4s-2.028-4-4-4-4 2.028-4 4 2.028 4 4 4zm0 1a5 5 0 100-10 5 5 0 000 10z"/></g><defs><clipPath id="aclip0_269_3122"><path fill="#fff" d="M0 0h24v24H0z"/></clipPath></defs></svg><svg fill="none" viewBox="0 0 24 24" id="cart-icon" xmlns="http://www.w3.org/2000/svg"><path fill-rule="evenodd" clip-rule="evenodd" d="M11.5 1C8.462 1 6 3.58 6 6.76V7H3v13a3 3 0 003 3h11a3 3 0 003-3V7h-3v-.24C17 3.58 14.538 1 11.5 1zM16 8v2h1V8h2v12a2 2 0 01-2 2H6a2 2 0 01-2-2V8h2v2h1V8h9zm0-1v-.24C16 4.11 14.031 2 11.5 2 8.969 2 7 4.11 7 6.76V7h9z" fill="#111"/></svg><svg fill="none" viewBox="0 0 24 24" id="favorite-icon" xmlns="http://www.w3.org/2000/svg"><path d="M4.244 12.252a4.25 4.25 0 116.697-5.11h1.117a4.25 4.25 0 116.698 5.11l-7.257 7.258-7.255-7.257zm15.218.71a5.25 5.25 0 10-7.963-6.795 5.25 5.25 0 10-7.961 6.795l7.962 7.961 7.962-7.96z" fill="#111"/></svg><svg fill="inherit" viewBox="0 0 11 15" id="location" xmlns="http://www.w3.org/2000/svg"><path d="M5.624 3.25a1.875 1.875 0 110 3.75 1.875 1.875 0 010-3.75zm0 .75a1.125 1.125 0 100 2.25 1.125 1.125 0 000-2.25zM2.1 7.269l3.525 5.798L9.15 7.268a4.125 4.125 0 10-7.05 0zm7.69.39L5.625 14.51 1.46 7.658a4.875 4.875 0 118.332 0H9.79z"/></svg><svg fill="none" viewBox="0 0 24 24" id="search-icon" xmlns="http://www.w3.org/2000/svg"><path d="M9.5 4a6.5 6.5 0 014.932 10.734l5.644 5.644-.707.707-5.645-5.645A6.5 6.5 0 119.5 4zm0 1a5.5 5.5 0 100 11 5.5 5.5 0 000-11z" fill="#111"/></svg></svg>