<svg width="1326" height="744" viewBox="0 0 1326 744" fill="none" xmlns="http://www.w3.org/2000/svg">
<rect width="1326" height="744" fill="#C4C4C4"/>
<path d="M980.168 101.668C981.273 101.668 982.332 102.107 983.114 102.888C983.895 103.669 984.334 104.729 984.334 105.834C984.334 106.939 983.895 107.999 983.114 108.781C982.332 109.562 981.273 110.001 980.168 110.001C979.063 110.001 978.003 109.562 977.221 108.781C976.44 107.999 976.001 106.939 976.001 105.834C976.001 104.729 976.44 103.669 977.221 102.888C978.003 102.107 979.063 101.668 980.168 101.668ZM980.168 103.334C979.505 103.334 978.869 103.598 978.4 104.066C977.931 104.535 977.668 105.171 977.668 105.834C977.668 106.497 977.931 107.133 978.4 107.602C978.869 108.071 979.505 108.334 980.168 108.334C980.831 108.334 981.467 108.071 981.935 107.602C982.404 107.133 982.668 106.497 982.668 105.834C982.668 105.171 982.404 104.535 981.935 104.066C981.467 103.598 980.831 103.334 980.168 103.334ZM972.334 110.596L980.168 123.479L988.001 110.596C988.846 109.206 989.305 107.616 989.333 105.99C989.36 104.363 988.955 102.759 988.157 101.341C987.36 99.9236 986.2 98.7435 984.796 97.9223C983.391 97.1011 981.794 96.6683 980.168 96.6683C978.541 96.6683 976.944 97.1011 975.54 97.9223C974.136 98.7435 972.975 99.9236 972.178 101.341C971.381 102.759 970.975 104.363 971.002 105.99C971.03 107.616 971.489 109.206 972.334 110.596ZM989.424 111.463L980.168 126.688L970.911 111.463C969.913 109.82 969.37 107.941 969.337 106.019C969.305 104.097 969.785 102.201 970.727 100.526C971.67 98.8506 973.041 97.4562 974.7 96.4858C976.359 95.5154 978.247 95.0039 980.169 95.0039C982.091 95.0039 983.979 95.5154 985.638 96.4858C987.298 97.4562 988.669 98.8506 989.611 100.526C990.554 102.201 991.033 104.097 991.001 106.019C990.969 107.941 990.426 109.82 989.428 111.463H989.424Z" fill="black"/>
<path d="M1122.17 227.668C1123.27 227.668 1124.33 228.107 1125.11 228.888C1125.9 229.669 1126.33 230.729 1126.33 231.834C1126.33 232.939 1125.9 233.999 1125.11 234.781C1124.33 235.562 1123.27 236.001 1122.17 236.001C1121.06 236.001 1120 235.562 1119.22 234.781C1118.44 233.999 1118 232.939 1118 231.834C1118 230.729 1118.44 229.669 1119.22 228.888C1120 228.107 1121.06 227.668 1122.17 227.668ZM1122.17 229.334C1121.5 229.334 1120.87 229.598 1120.4 230.066C1119.93 230.535 1119.67 231.171 1119.67 231.834C1119.67 232.497 1119.93 233.133 1120.4 233.602C1120.87 234.071 1121.5 234.334 1122.17 234.334C1122.83 234.334 1123.47 234.071 1123.94 233.602C1124.4 233.133 1124.67 232.497 1124.67 231.834C1124.67 231.171 1124.4 230.535 1123.94 230.066C1123.47 229.598 1122.83 229.334 1122.17 229.334ZM1114.33 236.596L1122.17 249.479L1130 236.596C1130.85 235.206 1131.31 233.616 1131.33 231.99C1131.36 230.363 1130.95 228.759 1130.16 227.341C1129.36 225.924 1128.2 224.744 1126.8 223.922C1125.39 223.101 1123.79 222.668 1122.17 222.668C1120.54 222.668 1118.94 223.101 1117.54 223.922C1116.14 224.744 1114.98 225.924 1114.18 227.341C1113.38 228.759 1112.97 230.363 1113 231.99C1113.03 233.616 1113.49 235.206 1114.33 236.596ZM1131.42 237.463L1122.17 252.688L1112.91 237.463C1111.91 235.82 1111.37 233.941 1111.34 232.019C1111.31 230.097 1111.78 228.201 1112.73 226.526C1113.67 224.851 1115.04 223.456 1116.7 222.486C1118.36 221.515 1120.25 221.004 1122.17 221.004C1124.09 221.004 1125.98 221.515 1127.64 222.486C1129.3 223.456 1130.67 224.851 1131.61 226.526C1132.55 228.201 1133.03 230.097 1133 232.019C1132.97 233.941 1132.43 235.82 1131.43 237.463H1131.42Z" fill="black"/>
<path d="M692.168 315.668C693.273 315.668 694.332 316.107 695.114 316.888C695.895 317.669 696.334 318.729 696.334 319.834C696.334 320.939 695.895 321.999 695.114 322.781C694.332 323.562 693.273 324.001 692.168 324.001C691.063 324.001 690.003 323.562 689.221 322.781C688.44 321.999 688.001 320.939 688.001 319.834C688.001 318.729 688.44 317.669 689.221 316.888C690.003 316.107 691.063 315.668 692.168 315.668ZM692.168 317.334C691.505 317.334 690.869 317.598 690.4 318.066C689.931 318.535 689.668 319.171 689.668 319.834C689.668 320.497 689.931 321.133 690.4 321.602C690.869 322.071 691.505 322.334 692.168 322.334C692.831 322.334 693.467 322.071 693.935 321.602C694.404 321.133 694.668 320.497 694.668 319.834C694.668 319.171 694.404 318.535 693.935 318.066C693.467 317.598 692.831 317.334 692.168 317.334ZM684.334 324.596L692.168 337.479L700.001 324.596C700.846 323.206 701.305 321.616 701.333 319.99C701.36 318.363 700.955 316.759 700.157 315.341C699.36 313.924 698.2 312.744 696.796 311.922C695.391 311.101 693.794 310.668 692.168 310.668C690.541 310.668 688.944 311.101 687.54 311.922C686.136 312.744 684.975 313.924 684.178 315.341C683.381 316.759 682.975 318.363 683.002 319.99C683.03 321.616 683.489 323.206 684.334 324.596ZM701.424 325.463L692.168 340.688L682.911 325.463C681.913 323.82 681.37 321.941 681.337 320.019C681.305 318.097 681.785 316.201 682.727 314.526C683.67 312.851 685.041 311.456 686.7 310.486C688.359 309.515 690.247 309.004 692.169 309.004C694.091 309.004 695.979 309.515 697.638 310.486C699.298 311.456 700.669 312.851 701.611 314.526C702.554 316.201 703.033 318.097 703.001 320.019C702.969 321.941 702.426 323.82 701.428 325.463H701.424Z" fill="black"/>
<path d="M329.168 587.668C330.273 587.668 331.332 588.107 332.114 588.888C332.895 589.669 333.334 590.729 333.334 591.834C333.334 592.939 332.895 593.999 332.114 594.781C331.332 595.562 330.273 596.001 329.168 596.001C328.063 596.001 327.003 595.562 326.221 594.781C325.44 593.999 325.001 592.939 325.001 591.834C325.001 590.729 325.44 589.669 326.221 588.888C327.003 588.107 328.063 587.668 329.168 587.668ZM329.168 589.334C328.505 589.334 327.869 589.598 327.4 590.066C326.931 590.535 326.668 591.171 326.668 591.834C326.668 592.497 326.931 593.133 327.4 593.602C327.869 594.071 328.505 594.334 329.168 594.334C329.831 594.334 330.467 594.071 330.935 593.602C331.404 593.133 331.668 592.497 331.668 591.834C331.668 591.171 331.404 590.535 330.935 590.066C330.467 589.598 329.831 589.334 329.168 589.334ZM321.334 596.596L329.168 609.479L337.001 596.596C337.846 595.206 338.305 593.616 338.333 591.99C338.36 590.363 337.955 588.759 337.157 587.341C336.36 585.924 335.2 584.744 333.796 583.922C332.391 583.101 330.794 582.668 329.168 582.668C327.541 582.668 325.944 583.101 324.54 583.922C323.136 584.744 321.975 585.924 321.178 587.341C320.381 588.759 319.975 590.363 320.002 591.99C320.03 593.616 320.489 595.206 321.334 596.596ZM338.424 597.463L329.168 612.688L319.911 597.463C318.913 595.82 318.37 593.941 318.337 592.019C318.305 590.097 318.785 588.201 319.727 586.526C320.67 584.851 322.041 583.456 323.7 582.486C325.359 581.515 327.247 581.004 329.169 581.004C331.091 581.004 332.979 581.515 334.638 582.486C336.298 583.456 337.669 584.851 338.611 586.526C339.554 588.201 340.033 590.097 340.001 592.019C339.969 593.941 339.426 595.82 338.428 597.463H338.424Z" fill="black"/>
<path d="M420.168 523.668C421.273 523.668 422.332 524.107 423.114 524.888C423.895 525.669 424.334 526.729 424.334 527.834C424.334 528.939 423.895 529.999 423.114 530.781C422.332 531.562 421.273 532.001 420.168 532.001C419.063 532.001 418.003 531.562 417.221 530.781C416.44 529.999 416.001 528.939 416.001 527.834C416.001 526.729 416.44 525.669 417.221 524.888C418.003 524.107 419.063 523.668 420.168 523.668ZM420.168 525.334C419.505 525.334 418.869 525.598 418.4 526.066C417.931 526.535 417.668 527.171 417.668 527.834C417.668 528.497 417.931 529.133 418.4 529.602C418.869 530.071 419.505 530.334 420.168 530.334C420.831 530.334 421.467 530.071 421.935 529.602C422.404 529.133 422.668 528.497 422.668 527.834C422.668 527.171 422.404 526.535 421.935 526.066C421.467 525.598 420.831 525.334 420.168 525.334ZM412.334 532.596L420.168 545.479L428.001 532.596C428.846 531.206 429.305 529.616 429.333 527.99C429.36 526.363 428.955 524.759 428.157 523.341C427.36 521.924 426.2 520.744 424.796 519.922C423.391 519.101 421.794 518.668 420.168 518.668C418.541 518.668 416.944 519.101 415.54 519.922C414.136 520.744 412.975 521.924 412.178 523.341C411.381 524.759 410.975 526.363 411.002 527.99C411.03 529.616 411.489 531.206 412.334 532.596ZM429.424 533.463L420.168 548.688L410.911 533.463C409.913 531.82 409.37 529.941 409.337 528.019C409.305 526.097 409.785 524.201 410.727 522.526C411.67 520.851 413.041 519.456 414.7 518.486C416.359 517.515 418.247 517.004 420.169 517.004C422.091 517.004 423.979 517.515 425.638 518.486C427.298 519.456 428.669 520.851 429.611 522.526C430.554 524.201 431.033 526.097 431.001 528.019C430.969 529.941 430.426 531.82 429.428 533.463H429.424Z" fill="black"/>
<path d="M1090.17 603.668C1091.27 603.668 1092.33 604.107 1093.11 604.888C1093.9 605.669 1094.33 606.729 1094.33 607.834C1094.33 608.939 1093.9 609.999 1093.11 610.781C1092.33 611.562 1091.27 612.001 1090.17 612.001C1089.06 612.001 1088 611.562 1087.22 610.781C1086.44 609.999 1086 608.939 1086 607.834C1086 606.729 1086.44 605.669 1087.22 604.888C1088 604.107 1089.06 603.668 1090.17 603.668ZM1090.17 605.334C1089.5 605.334 1088.87 605.598 1088.4 606.066C1087.93 606.535 1087.67 607.171 1087.67 607.834C1087.67 608.497 1087.93 609.133 1088.4 609.602C1088.87 610.071 1089.5 610.334 1090.17 610.334C1090.83 610.334 1091.47 610.071 1091.94 609.602C1092.4 609.133 1092.67 608.497 1092.67 607.834C1092.67 607.171 1092.4 606.535 1091.94 606.066C1091.47 605.598 1090.83 605.334 1090.17 605.334ZM1082.33 612.596L1090.17 625.479L1098 612.596C1098.85 611.206 1099.31 609.616 1099.33 607.99C1099.36 606.363 1098.95 604.759 1098.16 603.341C1097.36 601.924 1096.2 600.744 1094.8 599.922C1093.39 599.101 1091.79 598.668 1090.17 598.668C1088.54 598.668 1086.94 599.101 1085.54 599.922C1084.14 600.744 1082.98 601.924 1082.18 603.341C1081.38 604.759 1080.97 606.363 1081 607.99C1081.03 609.616 1081.49 611.206 1082.33 612.596ZM1099.42 613.463L1090.17 628.688L1080.91 613.463C1079.91 611.82 1079.37 609.941 1079.34 608.019C1079.31 606.097 1079.78 604.201 1080.73 602.526C1081.67 600.851 1083.04 599.456 1084.7 598.486C1086.36 597.515 1088.25 597.004 1090.17 597.004C1092.09 597.004 1093.98 597.515 1095.64 598.486C1097.3 599.456 1098.67 600.851 1099.61 602.526C1100.55 604.201 1101.03 606.097 1101 608.019C1100.97 609.941 1100.43 611.82 1099.43 613.463H1099.42Z" fill="black"/>
<path d="M924.168 508.668C925.273 508.668 926.332 509.107 927.114 509.888C927.895 510.669 928.334 511.729 928.334 512.834C928.334 513.939 927.895 514.999 927.114 515.781C926.332 516.562 925.273 517.001 924.168 517.001C923.063 517.001 922.003 516.562 921.221 515.781C920.44 514.999 920.001 513.939 920.001 512.834C920.001 511.729 920.44 510.669 921.221 509.888C922.003 509.107 923.063 508.668 924.168 508.668ZM924.168 510.334C923.505 510.334 922.869 510.598 922.4 511.066C921.931 511.535 921.668 512.171 921.668 512.834C921.668 513.497 921.931 514.133 922.4 514.602C922.869 515.071 923.505 515.334 924.168 515.334C924.831 515.334 925.467 515.071 925.935 514.602C926.404 514.133 926.668 513.497 926.668 512.834C926.668 512.171 926.404 511.535 925.935 511.066C925.467 510.598 924.831 510.334 924.168 510.334ZM916.334 517.596L924.168 530.479L932.001 517.596C932.846 516.206 933.305 514.616 933.333 512.99C933.36 511.363 932.955 509.759 932.157 508.341C931.36 506.924 930.2 505.744 928.796 504.922C927.391 504.101 925.794 503.668 924.168 503.668C922.541 503.668 920.944 504.101 919.54 504.922C918.136 505.744 916.975 506.924 916.178 508.341C915.381 509.759 914.975 511.363 915.002 512.99C915.03 514.616 915.489 516.206 916.334 517.596ZM933.424 518.463L924.168 533.688L914.911 518.463C913.913 516.82 913.37 514.941 913.337 513.019C913.305 511.097 913.785 509.201 914.727 507.526C915.67 505.851 917.041 504.456 918.7 503.486C920.359 502.515 922.247 502.004 924.169 502.004C926.091 502.004 927.979 502.515 929.638 503.486C931.298 504.456 932.669 505.851 933.611 507.526C934.554 509.201 935.033 511.097 935.001 513.019C934.969 514.941 934.426 516.82 933.428 518.463H933.424Z" fill="black"/>
<path d="M178.168 219.668C179.273 219.668 180.332 220.107 181.114 220.888C181.895 221.669 182.334 222.729 182.334 223.834C182.334 224.939 181.895 225.999 181.114 226.781C180.332 227.562 179.273 228.001 178.168 228.001C177.063 228.001 176.003 227.562 175.221 226.781C174.44 225.999 174.001 224.939 174.001 223.834C174.001 222.729 174.44 221.669 175.221 220.888C176.003 220.107 177.063 219.668 178.168 219.668ZM178.168 221.334C177.505 221.334 176.869 221.598 176.4 222.066C175.931 222.535 175.668 223.171 175.668 223.834C175.668 224.497 175.931 225.133 176.4 225.602C176.869 226.071 177.505 226.334 178.168 226.334C178.831 226.334 179.467 226.071 179.935 225.602C180.404 225.133 180.668 224.497 180.668 223.834C180.668 223.171 180.404 222.535 179.935 222.066C179.467 221.598 178.831 221.334 178.168 221.334ZM170.334 228.596L178.168 241.479L186.001 228.596C186.846 227.206 187.305 225.616 187.333 223.99C187.36 222.363 186.955 220.759 186.157 219.341C185.36 217.924 184.2 216.744 182.796 215.922C181.391 215.101 179.794 214.668 178.168 214.668C176.541 214.668 174.944 215.101 173.54 215.922C172.136 216.744 170.975 217.924 170.178 219.341C169.381 220.759 168.975 222.363 169.002 223.99C169.03 225.616 169.489 227.206 170.334 228.596ZM187.424 229.463L178.168 244.688L168.911 229.463C167.913 227.82 167.37 225.941 167.337 224.019C167.305 222.097 167.785 220.201 168.727 218.526C169.67 216.851 171.041 215.456 172.7 214.486C174.359 213.515 176.247 213.004 178.169 213.004C180.091 213.004 181.979 213.515 183.638 214.486C185.298 215.456 186.669 216.851 187.611 218.526C188.554 220.201 189.033 222.097 189.001 224.019C188.969 225.941 188.426 227.82 187.428 229.463H187.424Z" fill="black"/>
<mask id="path-10-inside-1_1104_25450" fill="white">
<path fill-rule="evenodd" clip-rule="evenodd" d="M334.088 146.459L324.832 161.684L315.575 146.459C314.577 144.816 314.034 142.937 314.002 141.015C313.969 139.093 314.449 137.197 315.391 135.522C316.334 133.847 317.705 132.452 319.364 131.482C321.024 130.511 322.911 130 324.833 130C326.756 130 328.643 130.511 330.302 131.482C331.962 132.452 333.333 133.847 334.275 135.522C335.218 137.197 335.697 139.093 335.665 141.015C335.633 142.937 335.09 144.816 334.092 146.459H334.088ZM328.113 137.884C327.332 137.103 326.272 136.664 325.167 136.664C324.062 136.664 323.002 137.103 322.22 137.884C321.439 138.666 321 139.726 321 140.831C321 141.936 321.439 142.996 322.22 143.777C323.002 144.558 324.062 144.997 325.167 144.997C326.272 144.997 327.332 144.558 328.113 143.777C328.894 142.996 329.333 141.936 329.333 140.831C329.333 139.726 328.894 138.666 328.113 137.884Z"/>
</mask>
<path fill-rule="evenodd" clip-rule="evenodd" d="M334.088 146.459L324.832 161.684L315.575 146.459C314.577 144.816 314.034 142.937 314.002 141.015C313.969 139.093 314.449 137.197 315.391 135.522C316.334 133.847 317.705 132.452 319.364 131.482C321.024 130.511 322.911 130 324.833 130C326.756 130 328.643 130.511 330.302 131.482C331.962 132.452 333.333 133.847 334.275 135.522C335.218 137.197 335.697 139.093 335.665 141.015C335.633 142.937 335.09 144.816 334.092 146.459H334.088ZM328.113 137.884C327.332 137.103 326.272 136.664 325.167 136.664C324.062 136.664 323.002 137.103 322.22 137.884C321.439 138.666 321 139.726 321 140.831C321 141.936 321.439 142.996 322.22 143.777C323.002 144.558 324.062 144.997 325.167 144.997C326.272 144.997 327.332 144.558 328.113 143.777C328.894 142.996 329.333 141.936 329.333 140.831C329.333 139.726 328.894 138.666 328.113 137.884Z" fill="#111111"/>
<path d="M324.832 161.684L323.977 162.203L324.832 163.609L325.686 162.203L324.832 161.684ZM334.088 146.459V145.459H333.526L333.234 145.939L334.088 146.459ZM315.575 146.459L314.72 146.978L314.721 146.978L315.575 146.459ZM314.002 141.015L313.002 141.032L314.002 141.015ZM315.391 135.522L316.263 136.012L315.391 135.522ZM319.364 131.482L319.869 132.345L319.364 131.482ZM330.302 131.482L330.807 130.619V130.619L330.302 131.482ZM334.275 135.522L333.404 136.012L334.275 135.522ZM334.092 146.459V147.459H334.654L334.946 146.978L334.092 146.459ZM328.113 137.884L328.82 137.177L328.82 137.177L328.113 137.884ZM322.22 137.884L322.927 138.592H322.927L322.22 137.884ZM322.22 143.777L322.927 143.07L322.927 143.07L322.22 143.777ZM325.686 162.203L334.943 146.978L333.234 145.939L323.977 161.164L325.686 162.203ZM314.721 146.978L323.977 162.203L325.686 161.164L316.429 145.939L314.721 146.978ZM313.002 141.032C313.037 143.131 313.63 145.184 314.72 146.978L316.43 145.939C315.524 144.448 315.031 142.743 315.001 140.998L313.002 141.032ZM314.52 135.032C313.49 136.862 312.966 138.933 313.002 141.032L315.001 140.998C314.972 139.254 315.407 137.533 316.263 136.012L314.52 135.032ZM318.859 130.619C317.047 131.679 315.549 133.202 314.52 135.032L316.263 136.012C317.118 134.492 318.363 133.226 319.869 132.345L318.859 130.619ZM324.833 129C322.734 129 320.672 129.559 318.859 130.619L319.869 132.345C321.375 131.464 323.089 131 324.833 131V129ZM330.807 130.619C328.995 129.559 326.933 129 324.833 129V131C326.578 131 328.291 131.464 329.798 132.345L330.807 130.619ZM335.147 135.032C334.117 133.202 332.62 131.679 330.807 130.619L329.798 132.345C331.304 133.226 332.548 134.492 333.404 136.012L335.147 135.032ZM336.665 141.032C336.7 138.933 336.176 136.862 335.147 135.032L333.404 136.012C334.259 137.533 334.695 139.254 334.665 140.998L336.665 141.032ZM334.946 146.978C336.037 145.184 336.63 143.131 336.665 141.032L334.665 140.998C334.636 142.743 334.143 144.448 333.237 145.939L334.946 146.978ZM334.088 147.459H334.092V145.459H334.088V147.459ZM325.167 137.664C326.007 137.664 326.812 137.998 327.406 138.592L328.82 137.177C327.851 136.208 326.537 135.664 325.167 135.664V137.664ZM322.927 138.592C323.521 137.998 324.327 137.664 325.167 137.664V135.664C323.796 135.664 322.482 136.208 321.513 137.177L322.927 138.592ZM322 140.831C322 139.991 322.334 139.185 322.927 138.592L321.513 137.177C320.544 138.146 320 139.46 320 140.831H322ZM322.927 143.07C322.334 142.476 322 141.671 322 140.831H320C320 142.201 320.544 143.515 321.513 144.484L322.927 143.07ZM325.167 143.997C324.327 143.997 323.521 143.664 322.927 143.07L321.513 144.484C322.482 145.453 323.796 145.997 325.167 145.997V143.997ZM327.406 143.07C326.812 143.664 326.007 143.997 325.167 143.997V145.997C326.537 145.997 327.851 145.453 328.82 144.484L327.406 143.07ZM328.333 140.831C328.333 141.671 328 142.476 327.406 143.07L328.82 144.484C329.789 143.515 330.333 142.201 330.333 140.831H328.333ZM327.406 138.592C328 139.185 328.333 139.991 328.333 140.831H330.333C330.333 139.46 329.789 138.146 328.82 137.177L327.406 138.592Z" fill="black" mask="url(#path-10-inside-1_1104_25450)"/>
</svg>
