<svg width="800" height="425" viewBox="0 0 800 425" fill="none" xmlns="http://www.w3.org/2000/svg">
<rect width="800" height="424" fill="#C4C4C4"/>
<path d="M456.062 180.126C457.968 180.126 459.796 180.883 461.144 182.231C462.492 183.579 463.249 185.407 463.249 187.313C463.249 189.219 462.492 191.048 461.144 192.396C459.796 193.743 457.968 194.501 456.062 194.501C454.155 194.501 452.327 193.743 450.979 192.396C449.631 191.048 448.874 189.219 448.874 187.313C448.874 185.407 449.631 183.579 450.979 182.231C452.327 180.883 454.155 180.126 456.062 180.126ZM456.062 183.001C454.918 183.001 453.821 183.455 453.012 184.264C452.203 185.073 451.749 186.169 451.749 187.313C451.749 188.457 452.203 189.554 453.012 190.363C453.821 191.171 454.918 191.626 456.062 191.626C457.205 191.626 458.302 191.171 459.111 190.363C459.92 189.554 460.374 188.457 460.374 187.313C460.374 186.169 459.92 185.073 459.111 184.264C458.302 183.455 457.205 183.001 456.062 183.001ZM442.549 195.527L456.062 217.751L469.574 195.527C471.031 193.129 471.824 190.387 471.872 187.582C471.919 184.776 471.219 182.008 469.844 179.563C468.468 177.117 466.467 175.082 464.045 173.665C461.623 172.249 458.867 171.502 456.062 171.502C453.256 171.502 450.5 172.249 448.078 173.665C445.656 175.082 443.655 177.117 442.279 179.563C440.904 182.008 440.204 184.776 440.251 187.582C440.299 190.387 441.092 193.129 442.549 195.527ZM472.029 197.022L456.062 223.285L440.094 197.022C438.372 194.188 437.435 190.947 437.38 187.632C437.324 184.317 438.151 181.046 439.777 178.156C441.403 175.266 443.768 172.861 446.63 171.187C449.493 169.513 452.749 168.631 456.064 168.631C459.38 168.631 462.636 169.513 465.499 171.187C468.361 172.861 470.726 175.266 472.352 178.156C473.978 181.046 474.805 184.317 474.749 187.632C474.694 190.947 473.757 194.188 472.035 197.022H472.029Z" fill="black"/>
</svg>
