<svg width="24" height="24" viewBox="0 0 24 24" fill="none" xmlns="http://www.w3.org/2000/svg">
<g clip-path="url(#clip0_947_21097)">
<path fill-rule="evenodd" clip-rule="evenodd" d="M8.51828 13.2227C6.80418 13.4895 5.20622 14.2935 3.96429 15.5355C3.34686 16.1529 3 16.9903 3 17.8635V19.9997V20.9997H4H20H21V19.9997V17.693C21 16.929 20.6965 16.1962 20.1562 15.656C18.875 14.3747 17.2328 13.5373 15.4686 13.2427C15.2945 13.508 15.08 13.7544 14.8284 13.9745C14.7603 14.0341 14.6899 14.0914 14.6175 14.1462C16.4351 14.2826 18.1514 15.0654 19.4491 16.3631C19.8018 16.7158 20 17.1942 20 17.693V19.9997H4V17.8635C4 17.2555 4.24151 16.6725 4.67139 16.2426C5.92941 14.9845 7.60326 14.238 9.36987 14.1366C9.30191 14.0847 9.23576 14.0307 9.17157 13.9745C8.91371 13.7489 8.69469 13.4956 8.51828 13.2227Z" fill="#111111"/>
<path d="M10.2761 13.6532L10.1302 14.1315L10.1303 14.1315L10.1306 14.1316L10.1315 14.1318L10.1345 14.1328L10.1452 14.136L10.1845 14.1477C10.2183 14.1576 10.2666 14.1716 10.3263 14.1884C10.4455 14.2218 10.611 14.2665 10.7965 14.3113C11.1515 14.3971 11.6345 14.4975 11.9986 14.4979C12.6543 14.4986 13.3036 14.3717 13.9004 14.1248L13.9239 14.1166C13.9493 14.1075 13.9848 14.0945 14.0281 14.0778C14.1143 14.0444 14.2332 13.9954 14.3657 13.9319C14.5452 13.8459 14.7764 13.7211 14.9862 13.5569L15.8031 13.7905C18.4472 15.3277 19.5001 16.8258 19.8465 17.8985C20.0216 18.4405 20.0185 18.8773 19.9527 19.1727C19.9195 19.3215 19.8723 19.4268 19.8311 19.4914C19.8147 19.5171 19.8018 19.5326 19.7938 19.5412C19.7769 19.5453 19.746 19.5522 19.6968 19.5607C19.61 19.5757 19.4934 19.5915 19.3478 19.6077C19.0572 19.64 18.6723 19.6714 18.2201 19.7015C17.3171 19.7615 16.1661 19.8149 15.009 19.8593C12.6919 19.9482 10.3736 20.0004 10.0006 20C9.81527 19.9998 9.37835 20.0165 8.81862 20.0379C8.20623 20.0613 7.44684 20.0903 6.70909 20.109C5.99019 20.1272 5.28086 20.1361 4.7113 20.1228C4.42598 20.1161 4.18292 20.1041 3.99464 20.0859C3.98591 20.085 3.97734 20.0842 3.96893 20.0833C3.76092 16.3474 6.2986 14.888 7.70531 14.079C7.89804 13.9681 8.06954 13.8695 8.20985 13.7789L9.01893 13.5552C9.22822 13.72 9.45874 13.8447 9.63759 13.9304C9.76931 13.9935 9.88742 14.042 9.97304 14.075C10.016 14.0916 10.0513 14.1044 10.0766 14.1133L10.1069 14.1238L10.116 14.1269L10.1189 14.1279L10.12 14.1282L10.1204 14.1284L10.1206 14.1284C10.1207 14.1284 10.1207 14.1285 10.275 13.6568L10.1207 14.1286L10.1301 14.1314L10.2761 13.6532Z" fill="#111111" stroke="#111111"/>
<path fill-rule="evenodd" clip-rule="evenodd" d="M12 12C14.7614 12 17 9.76142 17 7C17 4.23858 14.7614 2 12 2C9.23858 2 7 4.23858 7 7C7 9.76142 9.23858 12 12 12Z" fill="#111111"/>
</g>
<defs>
<clipPath id="clip0_947_21097">
<rect width="24" height="24" fill="white"/>
</clipPath>
</defs>
</svg>
