<svg width="24" height="24" viewBox="0 0 24 24" fill="none" xmlns="http://www.w3.org/2000/svg">
<g clip-path="url(#clip0_269_3122)">
<path fill-rule="evenodd" clip-rule="evenodd" d="M8.51828 13.2227C6.80418 13.4895 5.20622 14.2935 3.96429 15.5355C3.34686 16.1529 3 16.9903 3 17.8635V19.9997V20.9997H4H20H21V19.9997V17.693C21 16.929 20.6965 16.1962 20.1562 15.656C18.875 14.3747 17.2328 13.5373 15.4686 13.2427C15.2945 13.508 15.08 13.7544 14.8284 13.9745C14.7603 14.0341 14.6899 14.0914 14.6175 14.1462C16.4351 14.2826 18.1514 15.0654 19.4491 16.3631C19.8018 16.7158 20 17.1942 20 17.693V19.9997H4V17.8635C4 17.2555 4.24151 16.6725 4.67139 16.2426C5.92941 14.9845 7.60326 14.238 9.36987 14.1366C9.30191 14.0847 9.23576 14.0307 9.17157 13.9745C8.91371 13.7489 8.69469 13.4956 8.51828 13.2227Z" fill="#111111"/>
<path d="M10.276 13.6532C10.1207 14.1285 10.1206 14.1284 10.1205 14.1284L10.1203 14.1284L10.1199 14.1282L10.1188 14.1279L10.1159 14.1269L10.1068 14.1238L10.0765 14.1133C10.0512 14.1044 10.0159 14.0916 9.97294 14.075C9.88733 14.042 9.76921 13.9935 9.6375 13.9304C9.5526 13.8897 9.45606 13.8402 9.35567 13.7819C9.55143 13.8996 9.75833 14.0046 9.97486 14.0957C10.6041 14.3604 11.2956 14.4992 11.9982 14.5C12.7007 14.5008 13.3927 14.3635 14.0227 14.1001C14.2661 13.9983 14.4975 13.8789 14.7146 13.7437C14.5904 13.8195 14.4694 13.8822 14.3656 13.9319C14.2331 13.9954 14.1142 14.0444 14.028 14.0778C13.9847 14.0945 13.9492 14.1075 13.9238 14.1166L13.9003 14.1248C13.3035 14.3717 12.6542 14.4986 11.9985 14.4979C11.6344 14.4975 11.1514 14.3971 10.7964 14.3113C10.6109 14.2665 10.4454 14.2218 10.3262 14.1884C10.2665 14.1716 10.2182 14.1576 10.1844 14.1477L10.1451 14.136L10.1344 14.1328L10.1314 14.1318L10.1305 14.1316L10.1302 14.1315L10.1301 14.1315L10.276 13.6532ZM10.276 13.6532L10.1206 14.1286L10.13 14.1314L10.276 13.6532ZM14.9903 13.5581C14.9486 13.5883 14.9064 13.618 14.8636 13.647C14.9048 13.6184 14.9459 13.5884 14.9861 13.5569L14.9903 13.5581ZM9.10392 13.6193C9.07402 13.5986 9.04444 13.5776 9.01516 13.5562L9.01883 13.5552C9.04687 13.5773 9.07529 13.5987 9.10392 13.6193Z" fill="#111111" stroke="#111111"/>
<path fill-rule="evenodd" clip-rule="evenodd" d="M12 11C13.9724 11 16 8.97245 16 7C16 5.02755 13.9724 3 12 3C10.0276 3 8 5.02755 8 7C8 8.97245 10.0276 11 12 11ZM12 12C14.7614 12 17 9.76142 17 7C17 4.23858 14.7614 2 12 2C9.23858 2 7 4.23858 7 7C7 9.76142 9.23858 12 12 12Z" fill="#111111"/>
</g>
<defs>
<clipPath id="clip0_269_3122">
<rect width="24" height="24" fill="white"/>
</clipPath>
</defs>
</svg>
