<svg width="24" height="24" viewBox="0 0 24 24" fill="none" xmlns="http://www.w3.org/2000/svg">
<path fill-rule="evenodd" clip-rule="evenodd" d="M11.5 1C8.46237 1 6 3.57949 6 6.76058V7H3.00003L3 20C3 20.7957 3.31607 21.5587 3.87868 22.1213C4.44129 22.6839 5.20435 23 6 23H17C17.7957 23 18.5587 22.6839 19.1213 22.1213C19.6839 21.5587 20 20.7957 20 20V7H17V6.76007C17 3.57891 14.5376 1 11.5 1ZM16 8V10H17V8H19V20C19 20.5304 18.7893 21.0391 18.4142 21.4142C18.0391 21.7893 17.5304 22 17 22H6C5.46957 22 4.96086 21.7893 4.58579 21.4142C4.21071 21.0391 4 20.5304 4 20V8H6V10H7V8H16ZM16 7V6.76007C16 4.10909 14.0313 2 11.5 2C8.96876 2 7 4.10955 7 6.76058V7H16Z" fill="#111111"/>
</svg>
