<svg width="24" height="24" viewBox="0 0 24 24" fill="none" xmlns="http://www.w3.org/2000/svg">
<path d="M19.707 8.04125L17.375 10.3732L13.625 6.62325L15.957 4.29125C16.0498 4.1983 16.16 4.12456 16.2813 4.07425C16.4026 4.02394 16.5327 3.99805 16.664 3.99805C16.7953 3.99805 16.9254 4.02394 17.0467 4.07425C17.168 4.12456 17.2782 4.1983 17.371 4.29125L19.707 6.62725C19.7999 6.72004 19.8737 6.83024 19.924 6.95155C19.9743 7.07287 20.0002 7.20291 20.0002 7.33425C20.0002 7.46558 19.9743 7.59563 19.924 7.71694C19.8737 7.83826 19.7999 7.94846 19.707 8.04125ZM3 17.2472L13.065 7.18325L16.815 10.9332L6.75 20.9972H3.001V17.2472H3ZM16.622 5.04325L15.082 6.58225L17.419 8.91725L18.957 7.37825L16.622 5.04325ZM15.358 10.9782L13.023 8.64225L4.001 17.6632V19.9992H6.337L15.358 10.9782Z" fill="black" fill-opacity="0.5"/>
</svg>
