<svg width="24" height="24" viewBox="0 0 24 24" fill="none" xmlns="http://www.w3.org/2000/svg">
<path d="M4.24355 12.2522C3.8152 11.8237 3.4834 11.3086 3.27042 10.7414C3.05743 10.1742 2.96817 9.56807 3.00863 8.96357C3.04908 8.35906 3.21831 7.77019 3.50498 7.23644C3.79164 6.7027 4.18911 6.23641 4.67074 5.86884C5.15236 5.50128 5.707 5.24094 6.29748 5.10527C6.88795 4.96961 7.5006 4.96176 8.09436 5.08225C8.68812 5.20274 9.24925 5.44878 9.74013 5.80389C10.231 6.15899 10.6403 6.61494 10.9405 7.14117H12.0585C12.3588 6.61494 12.7681 6.15899 13.259 5.80389C13.7498 5.44878 14.311 5.20274 14.9047 5.08225C15.4985 4.96176 16.1111 4.96961 16.7016 5.10527C17.2921 5.24094 17.8467 5.50128 18.3284 5.86884C18.81 6.23641 19.2074 6.7027 19.4941 7.23644C19.7808 7.77019 19.95 8.35906 19.9905 8.96357C20.0309 9.56807 19.9417 10.1742 19.7287 10.7414C19.5157 11.3086 19.1839 11.8237 18.7555 12.2522L11.4995 19.5102L4.24355 12.2532V12.2522ZM19.4615 12.9622C19.9737 12.45 20.3743 11.8374 20.6382 11.1629C20.9021 10.4884 21.0236 9.76653 20.995 9.0428C20.9664 8.31906 20.7884 7.60907 20.4721 6.95747C20.1558 6.30587 19.7081 5.72677 19.1572 5.25658C18.6062 4.7864 17.964 4.43529 17.2708 4.22536C16.5776 4.01543 15.8484 3.9512 15.1292 4.03673C14.4099 4.12225 13.7162 4.35568 13.0915 4.72232C12.4669 5.08896 11.9249 5.58089 11.4995 6.16717C11.0742 5.58089 10.5322 5.08896 9.90756 4.72232C9.28291 4.35568 8.58915 4.12225 7.86992 4.03673C7.15069 3.9512 6.42154 4.01543 5.72833 4.22536C5.03512 4.43529 4.39284 4.7864 3.8419 5.25658C3.29096 5.72677 2.84327 6.30587 2.52699 6.95747C2.21071 7.60907 2.03268 8.31906 2.00409 9.0428C1.9755 9.76653 2.09698 10.4884 2.36089 11.1629C2.62479 11.8374 3.02541 12.45 3.53755 12.9622L11.4995 20.9232L19.4615 12.9632V12.9622Z" fill="#111111"/>
</svg>
