<svg width="24" height="24" viewBox="0 0 24 24" fill="inherit" xmlns="http://www.w3.org/2000/svg">
    <path
        d="M19.462 12.9622C19.9742 12.45 20.3748 11.8374 20.6387 11.1629C20.9026 10.4884 21.0241 9.76653 20.9955 9.0428C20.9669 8.31906 20.7889 7.60907 20.4726 6.95747C20.1563 6.30587 19.7086 5.72677 19.1577 5.25658C18.6067 4.7864 17.9645 4.43529 17.2713 4.22536C16.578 4.01543 15.8489 3.9512 15.1297 4.03673C14.4104 4.12225 13.7167 4.35568 13.092 4.72232C12.4674 5.08896 11.9253 5.58089 11.5 6.16717C11.0747 5.58089 10.5327 5.08896 9.90805 4.72232C9.2834 4.35568 8.58964 4.12225 7.87041 4.03673C7.15117 3.9512 6.42202 4.01543 5.72881 4.22536C5.0356 4.43529 4.39333 4.7864 3.84239 5.25658C3.29145 5.72677 2.84376 6.30587 2.52748 6.95747C2.2112 7.60907 2.03317 8.31906 2.00458 9.0428C1.97599 9.76653 2.09747 10.4884 2.36137 11.1629C2.62528 11.8374 3.0259 12.45 3.53803 12.9622L11.5 20.9232L19.462 12.9632V12.9622Z"
        fill="inherit" stroke="#000" />
</svg>