<svg width="28" height="28" viewBox="0 0 28 28" fill="none" xmlns="http://www.w3.org/2000/svg">
<path d="M4.48967 5.72899L5.24035 5L23.0251 22.271L22.2744 23L18.7196 19.5479C17.2681 20.1397 15.6723 20.4666 14 20.4666C11.7029 20.4673 9.45226 19.8388 7.50647 18.6533C5.56068 17.4677 3.99872 15.7732 3 13.7644C4.02528 11.7093 5.63739 9.98375 7.64421 8.79343L4.48967 5.72899ZM14 19.4355C15.3729 19.4355 16.6874 19.1942 17.902 18.7539L16.7033 17.5908C15.7834 18.2036 14.6717 18.4846 13.5609 18.385C12.4501 18.2853 11.4103 17.8114 10.6215 17.0454C9.8328 16.2793 9.34495 15.2694 9.24253 14.1906C9.14012 13.1119 9.42961 12.0324 10.0608 11.1392L8.4193 9.54511C6.63819 10.5477 5.17604 12.0076 4.19344 13.7644C5.14998 15.4802 6.5663 16.913 8.29256 17.9113C10.0188 18.9096 11.9908 19.4362 14 19.4355ZM23.8055 13.7644C22.849 12.0487 21.4329 10.616 19.7068 9.61772C17.9808 8.61944 16.009 8.09274 14 8.09331C12.8077 8.0919 11.6229 8.27641 10.4908 8.6398L9.65946 7.83348C11.0459 7.32196 12.5169 7.06058 14 7.06221C16.2971 7.06146 18.5477 7.68996 20.4935 8.87551C22.4393 10.0611 24.0013 11.7556 25 13.7644C24.0318 15.7055 22.5389 17.3549 20.6807 18.5363L19.912 17.7898C21.5447 16.7955 22.8858 15.4091 23.8055 13.7644ZM14 9.12442C14.8378 9.12422 15.6609 9.33793 16.3868 9.74414C17.1126 10.1503 17.7158 10.7347 18.1357 11.4388C18.5556 12.1428 18.7775 12.9416 18.7792 13.7552C18.7808 14.5688 18.5622 15.3684 18.1452 16.0741L17.3595 15.311C17.6891 14.638 17.7961 13.8823 17.6657 13.1479C17.5353 12.4134 17.1739 11.7362 16.6312 11.2092C16.0886 10.6821 15.3912 10.3312 14.6349 10.2046C13.8785 10.078 13.1004 10.1819 12.4073 10.502L11.6216 9.73896C12.3452 9.33504 13.1654 9.1231 14 9.12442ZM10.2838 13.7644C10.2836 14.4055 10.4593 15.035 10.7928 15.5883C11.1263 16.1416 11.6055 16.5986 12.1812 16.9124C12.7569 17.2261 13.4083 17.3853 14.0683 17.3735C14.7284 17.3617 15.3733 17.1794 15.9367 16.8453L10.8274 11.8837C10.4708 12.4498 10.2826 13.1008 10.2838 13.7644Z" fill="black"/>
</svg>
