<svg width="249" height="65" id="Layer_1" data-name="Layer 1" xmlns="http://www.w3.org/2000/svg" viewBox="0 0 470.86 155.96"><defs><style>.cls-1{fill:#1d1d1b}.cls-2{fill:#cdaa77}</style></defs><path class="cls-1" d="M17.87 115.29a9 9 0 002.37-1.86 4 4 0 001-2.85 4.21 4.21 0 00-.69-2.26 6.87 6.87 0 00-2-2 10.7 10.7 0 00-3-1.38 13.15 13.15 0 00-3.74-.52H0v21.77h3v-9.5h7.25l.19.23 7.77 9.27h3.12L14 117.55l-.67-.8 1-.22a13.14 13.14 0 003.54-1.24zm-6.06.1H3v-9.65h8.82a8.08 8.08 0 012.41.36 7.79 7.79 0 012 1 5.09 5.09 0 011.44 1.53 3.78 3.78 0 01.56 2 3.74 3.74 0 01-.56 2 5.06 5.06 0 01-1.44 1.52 7.5 7.5 0 01-2 1 8.31 8.31 0 01-2.42.24zm36.8 6.37a5.73 5.73 0 00.81-3v-14.32h-3v14.34a5.4 5.4 0 01-2.42 4.68 10.58 10.58 0 01-6.13 1.63 10.52 10.52 0 01-6.13-1.64 5.45 5.45 0 01-2.43-4.67v-14.34h-3v14.34a5.71 5.71 0 00.81 3 7.84 7.84 0 002.34 2.4 12.36 12.36 0 003.65 1.63 19.46 19.46 0 009.51 0 12.31 12.31 0 003.66-1.63 7.58 7.58 0 002.33-2.42zm76.02-17.32h-3.12l-12.22 10.69 13.27 11.08h3.07l-12.94-10.58-.58-.47.57-.49 11.95-10.23zm-16.93 21.77v-21.77h-2.98v21.77h2.98zm21.67-21.77h2.38v21.77h-2.38zm17.15 21.77h2.99v-8.55l.13-.16 9.84-13.06h-2.96l-8 10.7-.5.67-.5-.67-8.01-10.7h-2.96l9.85 13.06.12.16v8.55zm17.09 0h20.46v-1.3H166.6v-9.3h15.61v-1.3H166.6v-8.57h16.93v-1.3h-19.92v21.77zm58.86-8.21a9.43 9.43 0 00-3.08-1.85 25 25 0 00-4.17-1.17c-1.61-.33-3-.65-4.3-1a13.76 13.76 0 01-3.44-1.39 3.08 3.08 0 01-1.62-2.75 3 3 0 01.59-1.72 4.94 4.94 0 011.54-1.34 8.45 8.45 0 012.25-.89 11.81 11.81 0 012.86-.33h10.48v-1.3H213.1a16.36 16.36 0 00-4.21.51 12.13 12.13 0 00-3.27 1.33 6.79 6.79 0 00-2.07 1.82 3.24 3.24 0 00-.68 1.92 3.61 3.61 0 001.13 2.82 9.72 9.72 0 003.08 1.85 25.72 25.72 0 004.15 1.17c1.64.33 3.05.65 4.31 1a13.54 13.54 0 013.43 1.37 3.09 3.09 0 011.63 2.75 3.63 3.63 0 01-2 3.13 10.57 10.57 0 01-5.45 1.16h-10.28v1.3h10.23a19.2 19.2 0 004.5-.49 12.31 12.31 0 003.33-1.3 6.27 6.27 0 002-1.78 3.52 3.52 0 00.66-2 3.6 3.6 0 00-1.12-2.82zm-148.63 0a9.33 9.33 0 00-3.08-1.85A25.13 25.13 0 0066.6 115c-1.62-.33-3-.65-4.31-1a13.92 13.92 0 01-3.44-1.39 3.08 3.08 0 01-1.62-2.75 3 3 0 01.59-1.72 4.94 4.94 0 011.54-1.34 8.45 8.45 0 012.25-.89 11.93 11.93 0 012.86-.33H75v-1.3H64.47a16.41 16.41 0 00-4.21.51A12.13 12.13 0 0057 106.1a6.91 6.91 0 00-2.07 1.82 3.24 3.24 0 00-.68 1.92 3.61 3.61 0 001.13 2.82 9.72 9.72 0 003.08 1.85 25.72 25.72 0 004.15 1.17c1.64.33 3.05.65 4.31 1a13.62 13.62 0 013.44 1.37A3.1 3.1 0 0172 120.8a3.63 3.63 0 01-2 3.13 10.61 10.61 0 01-5.46 1.16h-10.3v1.3h10.23a19.14 19.14 0 004.5-.49 12.25 12.25 0 003.34-1.3 6.38 6.38 0 002-1.78 3.51 3.51 0 00.65-2 3.6 3.6 0 00-1.12-2.82zm24.93 0a9.33 9.33 0 00-3.08-1.85 25.13 25.13 0 00-4.16-1.15c-1.62-.33-3-.65-4.3-1a14 14 0 01-3.45-1.39 3.08 3.08 0 01-1.62-2.75 2.9 2.9 0 01.6-1.72 4.79 4.79 0 011.53-1.34 8.66 8.66 0 012.26-.89 11.79 11.79 0 012.85-.33h10.49v-1.3H89.4a16.47 16.47 0 00-4.21.51 12.13 12.13 0 00-3.27 1.33 6.74 6.74 0 00-2.06 1.82 3.25 3.25 0 00-.69 1.92 3.61 3.61 0 001.13 2.82 9.77 9.77 0 003.09 1.85 25.59 25.59 0 004.14 1.17c1.64.33 3 .65 4.31 1a13.47 13.47 0 013.44 1.37 3.1 3.1 0 011.62 2.75 3.61 3.61 0 01-2 3.13 10.61 10.61 0 01-5.46 1.16H79.17v1.3H89.4a19.29 19.29 0 004.51-.49 12.31 12.31 0 003.33-1.3 6.38 6.38 0 002-1.78 3.51 3.51 0 00.65-2 3.57 3.57 0 00-1.12-2.84zm269.37 4.82a3.51 3.51 0 00.65-2 3.57 3.57 0 00-1.12-2.81 9.33 9.33 0 00-3.08-1.85 25.13 25.13 0 00-4.16-1.17c-1.62-.33-3-.65-4.3-1a13.76 13.76 0 01-3.44-1.39 3.07 3.07 0 01-1.63-2.75 2.9 2.9 0 01.6-1.72 4.83 4.83 0 011.54-1.34 8.45 8.45 0 012.25-.89 11.79 11.79 0 012.85-.33h10.49v-1.3H358.3a16.33 16.33 0 00-4.2.51 12.07 12.07 0 00-3.28 1.33 6.74 6.74 0 00-2.06 1.82 3.25 3.25 0 00-.69 1.92 3.61 3.61 0 001.13 2.82 9.77 9.77 0 003.09 1.85 25.59 25.59 0 004.14 1.17c1.64.33 3.05.65 4.31 1a13.47 13.47 0 013.44 1.37 3.1 3.1 0 011.62 2.75 3.61 3.61 0 01-2 3.13 10.61 10.61 0 01-5.46 1.16h-10.27v1.3h10.23a19.23 19.23 0 004.51-.49 12.31 12.31 0 003.33-1.3 6.38 6.38 0 002-1.79zm-114.05 3.39l-12-21.77h-3l-12 21.77h3.07l3-5.34.18-.32h14.48l.18.32 3 5.34zm-7.93-7H234l.51-.93 5.56-10 .55-1 .55 1 5.55 10 .52.93zm38.88 7h2.99v-21.77h-2.48l-12.27 18.18-.52.77-.52-.77-12.25-18.18h-2.48v21.77h2.99v-16.98l1.15 1.73 10.13 15.25h1.96l10.15-15.25 1.15-1.72v16.97zm35.33-6.61a8 8 0 001.21-4.28 8.14 8.14 0 00-1.21-4.26 12.5 12.5 0 00-3.27-3.55 16.53 16.53 0 00-4.79-2.39 19.45 19.45 0 00-11.44 0 16.28 16.28 0 00-4.79 2.39 12.39 12.39 0 00-3.28 3.55 8.22 8.22 0 00-1.2 4.26 8.09 8.09 0 001.2 4.28 12.63 12.63 0 003.28 3.54 16.28 16.28 0 004.79 2.39 19.45 19.45 0 0011.44 0 16.53 16.53 0 004.79-2.39 12.44 12.44 0 003.27-3.54zm-2.82-.32a10.48 10.48 0 01-2.7 3.09 12.47 12.47 0 01-3.83 2 14.21 14.21 0 01-8.87 0 12.75 12.75 0 01-3.84-2 10.16 10.16 0 01-2.7-3.08 8.22 8.22 0 010-7.93 10.2 10.2 0 012.7-3.09 12.86 12.86 0 013.84-2 14.21 14.21 0 018.87 0 12.46 12.46 0 013.83 2 10.34 10.34 0 012.7 3.09 7.86 7.86 0 011 4 7.94 7.94 0 01-1 3.92zm14.41 6.93h2.98v-20.47H345v-1.3h-23.1v1.3h10.06v20.47zm51.16-2.23l-.55-1.07-9.59-18.47h-3.11l11.54 21.77h3.46l11.51-21.77h-3.08l-9.62 18.47-.56 1.07zm17.18 2.23h20.46v-1.3h-17.47v-9.3h15.61v-1.3h-15.61v-8.57h16.93v-1.3H400.3v21.77zm31.43 0h2.98v-20.47h10.06v-1.3h-23.1v1.3h10.06v20.47zm26.18 0h2.99v-8.55l.12-.16 9.85-13.06h-2.96l-8.01 10.7-.5.67-.5-.67-8.01-10.7h-2.95l9.84 13.06.13.16v8.55z"/><path class="cls-2" d="M264.84 25.79V15.35l-23.78 23.56zm-.72-.43l-18.84 10.39 18.87-18.65zm.56 42.03V56.95l-23.62-13.28zm-.68-1.75l-18.7-18.78L264 57.38zm1.73-38.33V55h.1l6.44-8.41 4.46-5.4-11-13.89zm.73 2.06l9.34 11.83-4.1 5-5.24 6.74zm10.27 24.75v-11.2l-10.08 12.75zm-.73-.62l-7.64 1.17L276 45zm-10.19 3.28V67l.15-.07 10.47-11.83-10.51 1.56zm.73.52l8-1.19-8 9.07zm.11-30.53l10.08 12.75V28.33zM276 37.44l-7.64-9.67L276 29zm.43-10.08L266 15.53l-.15-.07v10.22l.11.13zm-9.89-10.08l8 9.07-8-1.18zM206 57v10.44l23.92-23.6zm.73.43L225.62 47l-18.94 18.65zm-.58-42.08v10.44l23.75 13.34zm.71 1.75l18.79 18.83-18.82-10.56zm-12.73 24.36l11 13.82V27.56zm10.29 11.75l-9.36-11.75 9.36-11.84zm-10.29-10.04v11.2l10.1 1.55zm.73 2.09l7.65 9.66-7.65-1.17zm-.4 10.09l10.47 11.83.14.07V57l-.1-.12zm9.88 10.08l-8-9.07 8 1.19zm-10.21-36.85v11.19L204.23 27zm.73.62l7.65-1.2-7.65 9.67zm10.21-3.27V15.71l-.14.07-10.47 11.83L205 26.06zm-.73-.51l-8 1.18 8-9.07zm33.44 10.4l23.78-23.72h-10.43zm22-23L241 31.61l10.57-18.82zm-40-.76h-10.44l23.79 23.72zm-.42.73l10.57 18.82-18.84-18.79zm30-1.79l-13.9-11-13.81 11zM235.47 1l11.83 9.33h-23.58zm-1.72-1h-11.19L221 10.1zm-10.57.7h8.49L222 8.39zM220 10.83L221.57.32 209.74 10.8l-.06.14h10.22zm-8.52-.62l9.06-8-1.18 8zM248.35 0h-11.2l12.75 10.1zm-.62.73l1.18 7.66-9.68-7.64zM251 10.94h10.22l-.06-.14L249.32.32l1.55 10.51zm8.4-.73h-7.88l-1.19-8zm-8.27 60.6h10.43l-23.68-24.02zm.43-.72l-10.5-19 18.77 19.07zM233.3 46.93l-23.77 23.72h10.44zm-22 23l18.84-18.78L219.54 70zm10.48 1.76l13.89 11 13.82-11zm13.89 10.1l-11.84-9.38h23.59zm1.71.92h11.2l1.55-10.09zM248 82h-8.49l9.67-7.67zm3.12-10.13l-1.55 10.51 11.83-10.47.06-.14h-10.22zm8.52.62l-9.07 8 1.19-8zM222.79 82.7H234l-12.75-10.1zm.62-.72l-1.18-7.66L231.9 82zm-3.26-10.21h-10.22l.06.14 11.83 10.47-1.55-10.51zm-8.4.72h7.88l1.18 8z"/><path class="cls-2" d="M236.49 36.39l13.1-24.33L221.5 12l12.91 24.43a5.1 5.1 0 00-4 4l-24.31-13.1-.1 28.09 24.48-12.94a5.08 5.08 0 004.12 3.9l-13.1 24.31 28.09.11-12.94-24.49a5.09 5.09 0 003.78-4l24.3 13.08.11-28.09-24.45 12.94a5.1 5.1 0 00-3.9-3.85zm-1.31-.1l-12.47-23.61 25.67.1-12.66 23.51h-.54zm-28.46 17.92l.1-25.67 23.53 12.66a1 1 0 000 .17v.36zm29.18-7.76l12.48 23.62-25.67-.07 12.66-23.5h.07zm.4-.79a4.91 4.91 0 01-.86.08h-.48a4.36 4.36 0 114.77-5.11 5.11 5.11 0 01.05.55 1.81 1.81 0 010 .23 5.8 5.8 0 01-.06.6 4.38 4.38 0 01-3.42 3.65zm4.21-4.66l23.6-12.47-.11 25.68-23.48-12.64a1.34 1.34 0 000-.2 2.36 2.36 0 00-.01-.37z"/><path class="cls-2" d="M235.44 38a3.42 3.42 0 103.41 3.42 3.42 3.42 0 00-3.41-3.42zm0 6.12a2.7 2.7 0 112.69-2.7 2.7 2.7 0 01-2.69 2.65z"/><path class="cls-1" d="M220.26 144.35V156h-1.82v-10l-3.35.79-.44-1.18 4.94-1.23zm11.56.32a4.61 4.61 0 011.9 1.41 3.13 3.13 0 01.7 2 3.06 3.06 0 01-.27 1.28 4.64 4.64 0 01-.63 1c-.24.3-.65.76-1.22 1.39l-3.82 4.25h-2.14l3.91-4.26a4.62 4.62 0 01-1.3.16 6.21 6.21 0 01-2.48-.5 4.62 4.62 0 01-1.84-1.37 3 3 0 01-.69-1.93 3.12 3.12 0 01.71-2 4.71 4.71 0 011.91-1.41 7 7 0 015.26 0zm-2.62 6a4.34 4.34 0 001.75-.35 3 3 0 001.23-1 2.24 2.24 0 000-2.69 2.83 2.83 0 00-1.23-.95 4.67 4.67 0 00-3.5 0 2.93 2.93 0 00-1.26.95 2.2 2.2 0 000 2.69 3.11 3.11 0 001.26 1 4.37 4.37 0 001.75.38zm12.72-6.32V156h-1.82v-10l-3.35.79-.44-1.18 4.93-1.23zm14.3 10.38V156h-10.69v-.35l5.47-4.4a15.73 15.73 0 002.05-1.87 2.45 2.45 0 00.65-1.59 2.09 2.09 0 00-.8-1.65 3.27 3.27 0 00-2.16-.68 3.35 3.35 0 00-2.23.71 2.13 2.13 0 00-.84 1.69 3.48 3.48 0 00.14 1H246a3 3 0 01-.17-1 2.91 2.91 0 01.61-1.75 4.26 4.26 0 011.73-1.34 6.35 6.35 0 012.62-.51 6.45 6.45 0 012.51.46 4.3 4.3 0 011.72 1.27 2.86 2.86 0 01.62 1.79 2.92 2.92 0 01-.45 1.54 6.1 6.1 0 01-1.08 1.36c-.43.41-1 .89-1.69 1.44l-3.4 2.71z"/></svg>